<svg width="502" height="129" viewBox="0 0 502 129" fill="none" xmlns="http://www.w3.org/2000/svg">
<path fill-rule="evenodd" clip-rule="evenodd" d="M124.291 105.233C141.8 105.233 155.995 91.0386 155.995 73.529C155.995 56.0193 141.8 41.825 124.291 41.825C106.781 41.825 92.5869 56.0193 92.5869 73.529C92.5869 91.0386 106.781 105.233 124.291 105.233ZM124.571 95.1326C136.658 95.1326 146.456 85.3347 146.456 73.2484C146.456 61.1621 136.658 51.3642 124.571 51.3642C112.485 51.3642 102.687 61.1621 102.687 73.2484C102.687 85.3347 112.485 95.1326 124.571 95.1326Z" fill="url(#paint0_linear_16_47)"/>
<path d="M58.407 79.1069C57.6232 77.8401 56.7527 76.6327 55.8037 75.4929L58.407 79.1069Z" fill="url(#paint1_linear_16_47)"/>
<path d="M1.52588e-05 99.974C2.05847 115.494 15.3443 127.469 31.4271 127.469C48.9368 127.469 63.1311 113.275 63.1311 95.7655C63.1311 92.6651 62.6861 89.6686 61.8564 86.8365L53.568 94.4529C53.5838 94.7949 53.5919 95.139 53.5919 95.4849C53.5919 107.571 43.794 117.369 31.7077 117.369C21.16 117.369 12.3552 109.907 10.2844 99.974H1.52588e-05Z" fill="url(#paint2_linear_16_47)"/>
<path d="M94.1526 90.5907C90.4583 93.4387 85.8285 95.1326 80.8031 95.1326C68.7168 95.1326 58.9189 85.3347 58.9189 73.2484C58.9189 61.1621 68.7168 51.3642 80.8031 51.3642C86.6658 51.3642 91.9901 53.6696 95.9188 57.4233L105 53.3784C99.1853 46.323 90.3792 41.825 80.5225 41.825C63.0129 41.825 48.8185 56.0193 48.8185 73.529C48.8185 91.0386 63.0129 105.233 80.5225 105.233C88.0043 105.233 94.8807 102.641 100.303 98.3068L94.1526 90.5907Z" fill="url(#paint3_linear_16_47)"/>
<path d="M112.222 72.9898C112.22 72.85 112.216 72.7104 112.212 72.571L111.859 72.7283L112.222 72.9898Z" fill="url(#paint4_linear_16_47)"/>
<path d="M50.7198 84.5643C46.8856 90.8988 39.9295 95.1326 31.9845 95.1326C19.8982 95.1326 10.1004 85.3347 10.1004 73.2484C10.1004 61.1621 19.8982 51.3642 31.9845 51.3642C37.8473 51.3642 43.1715 53.6696 47.1003 57.4233L56.1816 53.3784C50.3668 46.323 41.5607 41.825 31.704 41.825C14.1944 41.825 0 56.0193 0 73.529C0 91.0386 14.1944 105.233 31.704 105.233C43.068 105.233 53.0356 99.254 58.6326 90.2702L50.7198 84.5643Z" fill="url(#paint5_linear_16_47)"/>
<path d="M60.4094 93.698L100.144 59.6135L94.495 53.1754L56.6432 84.9472L60.4094 93.698Z" fill="url(#paint6_linear_16_47)"/>
<path fill-rule="evenodd" clip-rule="evenodd" d="M42.6167 80L42.6167 64L26.6167 64L26.6167 70.4445L36.1723 70.4445L36.1723 80L42.6167 80Z" fill="#BA99FF"/>
<path d="M183.838 104.178C178.189 104.178 173.326 102.899 169.247 100.34C165.194 97.7564 162.079 94.1973 159.9 89.663C157.722 85.1287 156.632 79.9357 156.632 74.0842C156.632 68.1566 157.747 62.9257 159.976 58.3913C162.205 53.8317 165.346 50.2726 169.399 47.7141C173.452 45.1557 178.227 43.8764 183.724 43.8764C188.157 43.8764 192.109 44.6997 195.579 46.3462C199.05 47.9674 201.849 50.2473 203.977 53.1857C206.13 56.1242 207.409 59.5566 207.814 63.483H196.757C196.149 60.7472 194.756 58.3913 192.578 56.4155C190.424 54.4396 187.537 53.4517 183.914 53.4517C180.748 53.4517 177.974 54.2876 175.593 55.9595C173.237 57.6061 171.401 59.9619 170.083 63.027C168.766 66.0668 168.107 69.6638 168.107 73.8182C168.107 78.0739 168.753 81.7469 170.045 84.8374C171.337 87.9278 173.161 90.3216 175.517 92.0188C177.898 93.716 180.697 94.5646 183.914 94.5646C186.067 94.5646 188.018 94.172 189.766 93.3867C191.539 92.5761 193.021 91.4235 194.212 89.929C195.427 88.4344 196.276 86.6359 196.757 84.5334H207.814C207.409 88.3078 206.181 91.6768 204.129 94.6406C202.077 97.6044 199.328 99.9349 195.883 101.632C192.464 103.329 188.449 104.178 183.838 104.178ZM234.918 104.178C229.447 104.178 224.672 102.924 220.593 100.416C216.515 97.9084 213.349 94.4 211.094 89.891C208.84 85.382 207.712 80.113 207.712 74.0842C207.712 68.0299 208.84 62.7357 211.094 58.2013C213.349 53.667 216.515 50.146 220.593 47.6381C224.672 45.1303 229.447 43.8764 234.918 43.8764C240.39 43.8764 245.165 45.1303 249.243 47.6381C253.322 50.146 256.488 53.667 258.742 58.2013C260.997 62.7357 262.124 68.0299 262.124 74.0842C262.124 80.113 260.997 85.382 258.742 89.891C256.488 94.4 253.322 97.9084 249.243 100.416C245.165 102.924 240.39 104.178 234.918 104.178ZM234.956 94.6406C238.503 94.6406 241.441 93.7034 243.772 91.8288C246.102 89.9543 247.825 87.4592 248.939 84.3434C250.079 81.2276 250.649 77.7952 250.649 74.0462C250.649 70.3224 250.079 66.9027 248.939 63.7869C247.825 60.6458 246.102 58.1254 243.772 56.2255C241.441 54.3256 238.503 53.3757 234.956 53.3757C231.385 53.3757 228.421 54.3256 226.065 56.2255C223.734 58.1254 221.999 60.6458 220.859 63.7869C219.745 66.9027 219.187 70.3224 219.187 74.0462C219.187 77.7952 219.745 81.2276 220.859 84.3434C221.999 87.4592 223.734 89.9543 226.065 91.8288C228.421 93.7034 231.385 94.6406 234.956 94.6406ZM276.537 68.3466V103H265.176V44.6364H276.081V54.1357H276.803C278.145 51.0452 280.248 48.5627 283.11 46.6882C285.998 44.8137 289.633 43.8764 294.016 43.8764C297.993 43.8764 301.476 44.7124 304.465 46.3842C307.454 48.0308 309.772 50.4879 311.418 53.7557C313.065 57.0234 313.888 61.0638 313.888 65.8768V103H302.527V67.2447C302.527 63.0143 301.425 59.7086 299.221 57.3274C297.017 54.9209 293.99 53.7177 290.14 53.7177C287.505 53.7177 285.162 54.2876 283.11 55.4276C281.084 56.5675 279.475 58.2393 278.285 60.4432C277.12 62.6217 276.537 65.2562 276.537 68.3466ZM363.23 58.8853L352.932 60.7092C352.502 59.3919 351.818 58.138 350.881 56.9474C349.969 55.7569 348.727 54.7816 347.157 54.0217C345.586 53.2617 343.623 52.8817 341.267 52.8817C338.05 52.8817 335.365 53.6037 333.212 55.0476C331.059 56.4661 329.982 58.3027 329.982 60.5572C329.982 62.5077 330.704 64.0782 332.148 65.2688C333.592 66.4594 335.922 67.4347 339.14 68.1946L348.411 70.3224C353.781 71.5637 357.783 73.4762 360.418 76.06C363.052 78.6438 364.37 82.0002 364.37 86.1293C364.37 89.625 363.356 92.7408 361.33 95.4766C359.329 98.187 356.53 100.315 352.932 101.86C349.361 103.405 345.219 104.178 340.507 104.178C333.972 104.178 328.64 102.785 324.511 99.9982C320.382 97.1864 317.848 93.1967 316.911 88.0291L327.892 86.3572C328.576 89.2197 329.982 91.3855 332.11 92.8548C334.238 94.2987 337.012 95.0206 340.431 95.0206C344.155 95.0206 347.132 94.248 349.361 92.7028C351.59 91.1322 352.705 89.2197 352.705 86.9652C352.705 85.1413 352.021 83.6088 350.653 82.3675C349.31 81.1263 347.246 80.189 344.459 79.5558L334.58 77.3899C329.134 76.1487 325.106 74.1728 322.497 71.4624C319.913 68.7519 318.621 65.3195 318.621 61.1651C318.621 57.72 319.584 54.7056 321.509 52.1218C323.434 49.538 326.094 47.5241 329.488 46.0803C332.883 44.611 336.771 43.8764 341.153 43.8764C347.461 43.8764 352.426 45.2443 356.048 47.9801C359.671 50.6906 362.064 54.3256 363.23 58.8853ZM391.815 104.178C386.344 104.178 381.569 102.924 377.49 100.416C373.412 97.9084 370.246 94.4 367.991 89.891C365.737 85.382 364.609 80.113 364.609 74.0842C364.609 68.0299 365.737 62.7357 367.991 58.2013C370.246 53.667 373.412 50.146 377.49 47.6381C381.569 45.1303 386.344 43.8764 391.815 43.8764C397.287 43.8764 402.062 45.1303 406.14 47.6381C410.219 50.146 413.385 53.667 415.64 58.2013C417.894 62.7357 419.021 68.0299 419.021 74.0842C419.021 80.113 417.894 85.382 415.64 89.891C413.385 94.4 410.219 97.9084 406.14 100.416C402.062 102.924 397.287 104.178 391.815 104.178ZM391.853 94.6406C395.4 94.6406 398.338 93.7034 400.669 91.8288C402.999 89.9543 404.722 87.4592 405.836 84.3434C406.976 81.2276 407.546 77.7952 407.546 74.0462C407.546 70.3224 406.976 66.9027 405.836 63.7869C404.722 60.6458 402.999 58.1254 400.669 56.2255C398.338 54.3256 395.4 53.3757 391.853 53.3757C388.282 53.3757 385.318 54.3256 382.962 56.2255C380.632 58.1254 378.896 60.6458 377.756 63.7869C376.642 66.9027 376.085 70.3224 376.085 74.0462C376.085 77.7952 376.642 81.2276 377.756 84.3434C378.896 87.4592 380.632 89.9543 382.962 91.8288C385.318 93.7034 388.282 94.6406 391.853 94.6406ZM433.434 25.1818V103H422.073V25.1818H433.434ZM464.243 104.178C458.492 104.178 453.54 102.949 449.386 100.492C445.257 98.0097 442.065 94.5266 439.81 90.043C437.581 85.534 436.467 80.2524 436.467 74.1982C436.467 68.2199 437.581 62.951 439.81 58.3913C442.065 53.8317 445.206 50.2726 449.234 47.7141C453.287 45.1557 458.024 43.8764 463.445 43.8764C466.738 43.8764 469.929 44.421 473.02 45.5103C476.11 46.5995 478.884 48.3094 481.341 50.6399C483.798 52.9704 485.736 55.9975 487.155 59.7212C488.573 63.4196 489.283 67.916 489.283 73.2102V77.2379H442.888V68.7266H478.149C478.149 65.7375 477.542 63.0903 476.326 60.7852C475.11 58.4547 473.4 56.6181 471.196 55.2756C469.017 53.933 466.459 53.2617 463.521 53.2617C460.329 53.2617 457.542 54.047 455.161 55.6175C452.805 57.1628 450.981 59.1893 449.69 61.6971C448.423 64.1796 447.79 66.8774 447.79 69.7905V76.44C447.79 80.341 448.474 83.6594 449.842 86.3952C451.235 89.131 453.173 91.2209 455.655 92.6648C458.138 94.0833 461.038 94.7926 464.356 94.7926C466.51 94.7926 468.473 94.4886 470.246 93.8807C472.019 93.2474 473.552 92.3101 474.844 91.0689C476.136 89.8277 477.124 88.2951 477.807 86.4712L488.561 88.4091C487.699 91.5755 486.154 94.3493 483.925 96.7305C481.721 99.0863 478.947 100.923 475.604 102.24C472.285 103.532 468.498 104.178 464.243 104.178Z" fill="url(#paint7_linear_16_47)"/>
<circle cx="29.1167" cy="77.5" r="3.5" fill="#BA99FF"/>
<path d="M477.917 41H474.897V29.24H471.017V26.72H481.797V29.24H477.917V41ZM490.039 41L486.599 29.8H486.519C486.532 30.0667 486.552 30.4667 486.579 31C486.605 31.5333 486.632 32.1067 486.659 32.72C486.685 33.32 486.699 33.8667 486.699 34.36V41H483.999V26.72H488.119L491.499 37.64H491.559L495.139 26.72H499.259V41H496.439V34.24C496.439 33.7867 496.445 33.2667 496.459 32.68C496.485 32.0933 496.505 31.54 496.519 31.02C496.545 30.4867 496.565 30.0867 496.579 29.82H496.499L492.819 41H490.039Z" fill="black"/>
<defs>
<linearGradient id="paint0_linear_16_47" x1="121.617" y1="78.5" x2="24.6167" y2="78.5" gradientUnits="userSpaceOnUse">
<stop stop-color="#7779FC"/>
<stop offset="0.275" stop-color="#A37EFE"/>
<stop offset="0.445" stop-color="#C081FF"/>
<stop offset="0.725" stop-color="#9666FC"/>
<stop offset="0.99" stop-color="#BA9AFF"/>
</linearGradient>
<linearGradient id="paint1_linear_16_47" x1="121.617" y1="78.5" x2="24.6167" y2="78.5" gradientUnits="userSpaceOnUse">
<stop stop-color="#7779FC"/>
<stop offset="0.275" stop-color="#A37EFE"/>
<stop offset="0.445" stop-color="#C081FF"/>
<stop offset="0.725" stop-color="#9666FC"/>
<stop offset="0.99" stop-color="#BA9AFF"/>
</linearGradient>
<linearGradient id="paint2_linear_16_47" x1="121.617" y1="78.5" x2="24.6167" y2="78.5" gradientUnits="userSpaceOnUse">
<stop stop-color="#7779FC"/>
<stop offset="0.275" stop-color="#A37EFE"/>
<stop offset="0.445" stop-color="#C081FF"/>
<stop offset="0.725" stop-color="#9666FC"/>
<stop offset="0.99" stop-color="#BA9AFF"/>
</linearGradient>
<linearGradient id="paint3_linear_16_47" x1="121.617" y1="78.5" x2="24.6167" y2="78.5" gradientUnits="userSpaceOnUse">
<stop stop-color="#7779FC"/>
<stop offset="0.275" stop-color="#A37EFE"/>
<stop offset="0.445" stop-color="#C081FF"/>
<stop offset="0.725" stop-color="#9666FC"/>
<stop offset="0.99" stop-color="#BA9AFF"/>
</linearGradient>
<linearGradient id="paint4_linear_16_47" x1="121.617" y1="78.5" x2="24.6167" y2="78.5" gradientUnits="userSpaceOnUse">
<stop stop-color="#7779FC"/>
<stop offset="0.275" stop-color="#A37EFE"/>
<stop offset="0.445" stop-color="#C081FF"/>
<stop offset="0.725" stop-color="#9666FC"/>
<stop offset="0.99" stop-color="#BA9AFF"/>
</linearGradient>
<linearGradient id="paint5_linear_16_47" x1="121.617" y1="78.5" x2="24.6167" y2="78.5" gradientUnits="userSpaceOnUse">
<stop stop-color="#7779FC"/>
<stop offset="0.275" stop-color="#A37EFE"/>
<stop offset="0.445" stop-color="#C081FF"/>
<stop offset="0.725" stop-color="#9666FC"/>
<stop offset="0.99" stop-color="#BA9AFF"/>
</linearGradient>
<linearGradient id="paint6_linear_16_47" x1="121.617" y1="78.5" x2="24.6167" y2="78.5" gradientUnits="userSpaceOnUse">
<stop stop-color="#7779FC"/>
<stop offset="0.275" stop-color="#A37EFE"/>
<stop offset="0.445" stop-color="#C081FF"/>
<stop offset="0.725" stop-color="#9666FC"/>
<stop offset="0.99" stop-color="#BA9AFF"/>
</linearGradient>
<linearGradient id="paint7_linear_16_47" x1="323.117" y1="0" x2="192.617" y2="0" gradientUnits="userSpaceOnUse">
<stop stop-color="#B63811"/>
<stop offset="0.5" stop-color="#E55353"/>
<stop offset="1" stop-color="#FF974C"/>
</linearGradient>
</defs>
</svg>
