
<svg width="604" height="388" viewBox="0 0 604 388" fill="none" xmlns="http://www.w3.org/2000/svg">
<path d="M595.785 36.9388L596.021 36.4975L595.786 36.9389C600.151 39.2619 602.658 42.9763 602.658 46.8626V333.364C602.658 337.8 599.385 341.96 593.963 344.124C588.563 346.28 581.999 346.035 576.906 343.492C536.996 323.527 498.338 313.826 458.724 313.826C404.729 313.826 356.561 331.39 305.678 349.945L305.619 349.966L305.791 350.436L305.619 349.966L305.565 349.986C254.975 368.442 202.751 387.496 144.417 387.496C98.2363 387.496 53.4046 375.59 7.37316 351.063C3.01598 348.74 0.5 345.019 0.5 341.139V54.6381C0.5 50.2016 3.77397 46.0422 9.1867 43.8782L9.18694 43.8781C14.5873 41.7157 21.1591 41.9604 26.252 44.51L26.2521 44.5101C66.1371 64.4626 104.804 74.1694 144.434 74.1694C198.454 74.1694 246.671 56.5812 297.614 37.9985L297.65 37.9853C348.273 19.5288 400.489 0.5 458.724 0.5C504.922 0.5 549.754 12.4116 595.785 36.9388Z" fill="#A6D966" stroke="#D0D0D0"/>
<path d="M149 136H149.117M114 299.333L44 264.333V112.667L67.3333 124.333M114 299.333L184 264.333M114 299.333V229.333M184 264.333L254 299.333V147.667L230.667 136M184 264.333V229.333M184 138.333C184 158.952 166.5 175.667 149 194.333C131.5 175.667 114 158.952 114 138.333C114 117.715 129.669 101 149 101C168.331 101 184 117.715 184 138.333Z" stroke="white" stroke-width="10" stroke-linecap="round" stroke-linejoin="round"/>
<path d="M337 136H337.117M372 138.333C372 158.952 354.5 175.667 337 194.333C319.5 175.667 302 158.952 302 138.333C302 117.715 317.669 101 337 101C356.331 101 372 117.715 372 138.333Z" stroke="#EFFFA6" stroke-width="10" stroke-linecap="round" stroke-linejoin="round"/>
<path d="M434 210H434.117M469 212.333C469 232.952 451.5 249.667 434 268.333C416.5 249.667 399 232.952 399 212.333C399 191.715 414.669 175 434 175C453.331 175 469 191.715 469 212.333Z" stroke="#EDFFD7" stroke-width="10" stroke-linecap="round" stroke-linejoin="round"/>
<path d="M512 138H512.1M542 140C542 157.673 527 172 512 188C497 172 482 157.673 482 140C482 122.327 495.431 108 512 108C528.569 108 542 122.327 542 140Z" stroke="#D6FFF5" stroke-width="8" stroke-linecap="round" stroke-linejoin="round"/>
<path d="M512 138H512.1M542 140C542 157.673 527 172 512 188C497 172 482 157.673 482 140C482 122.327 495.431 108 512 108C528.569 108 542 122.327 542 140Z" stroke="#F4FFAE" stroke-width="8" stroke-linecap="round" stroke-linejoin="round"/>
<path d="M433.5 101.625H433.568M454 103C454 115.15 443.75 125 433.5 136C423.25 125 413 115.15 413 103C413 90.8497 422.178 81 433.5 81C444.822 81 454 90.8497 454 103Z" stroke="#FFEBD7" stroke-width="8" stroke-linecap="round" stroke-linejoin="round"/>
</svg>
