<svg version="1.1" id="Layer_12" xmlns="http://www.w3.org/2000/svg" xmlns:xlink="http://www.w3.org/1999/xlink" x="0px" y="0px"
	 viewBox="0 0 359.54 292.06" style="enable-background:new 0 0 359.54 292.06;" xml:space="preserve">
<style type="text/css">
	.st0{fill:#989DE5;}
	.st1{fill:#CAC9DA;}
	.st2{fill:#36374F;}
	.st3{fill:#73B450;}
	.st4{fill:#52536B;}
	.st5{fill:#E3E3EA;}
	.st6{fill:#B5B5C5;}
	.st7{fill:#44455E;}
	.st8{fill:#575870;}
	.st9{fill:none;stroke:#9F9FB3;stroke-miterlimit:10;}
	.st10{fill:#A5A5B6;}
	.st11{fill:#9697AA;}
	.st12{fill:url(#SVGID_1_);}
	.st13{fill:#585971;}
	.st14{fill:#626377;}
	.st15{fill:url(#SVGID_2_);}
	.st16{fill:#3E3F58;}
	.st17{fill:#99F863;}
	.st18{fill:#423349;}
	.st19{fill:#FF9EA0;}
	.st20{fill:#FF9C96;}
	.st21{fill:#FFFFFF;}
	.st22{clip-path:url(#SVGID_4_);}
	.st23{fill:#F2EDE6;}
	.st24{fill:#BFC4BF;}
	.st25{fill:#425FDA;}
	.st26{fill:#999999;}
	.st27{fill:#EDEDED;}
	.st28{fill:#050505;}
	.st29{fill:#FF9F91;}
	.st30{fill:#FF7379;}
	.st31{fill:#FF9D94;}
	.st32{fill:#ED8A85;}
	.st33{fill:#F46E78;}
	.st34{fill:#DB616A;}
	.st35{fill:#FF6D68;}
</style>
<g>
	<g>
		<path class="st0" d="M303.75,106h-34.88c-10.31-0.69-13.8-8.42-13.8-8.42l0,0.01c-14.01-39.75-52.07-68.41-96.46-68.3
			c-28.01,0.06-53.36,11.42-71.75,29.76c-1.46,1.46-0.44,3.92,1.63,3.93c8.73,0.01,15.81,7.1,15.81,15.83v0
			c0,8.74-7.09,15.83-15.83,15.83H69.49c-3.56,0-6.74,2.28-7.82,5.68c-2.78,8.74-4.42,18-4.73,27.59c-1.34,1.88-3.51,3.89-6.7,3.89
			H25.88c-2.71,0-4.91,2.2-4.91,4.91c0,2.71,2.2,4.91,4.91,4.91h24.47c0,0,4.78-0.35,7.77,5.44c7.61,48.56,49.78,85.88,100.14,86.16
			c52.85,0.3,96.44-39.62,101.96-90.93l0,0.01c2.32-8.13,12.98-11.04,12.98-11.04h30.54c6.97,0,12.63-5.65,12.63-12.63v0
			C316.37,111.65,310.72,106,303.75,106z"/>
		<path class="st0" d="M315.53,91.25h-46.2c-1.75,0-3.16,1.42-3.16,3.16v0c0,1.75,1.42,3.16,3.16,3.16h46.2
			c1.75,0,3.16-1.42,3.16-3.16v0C318.69,92.67,317.28,91.25,315.53,91.25z"/>
		<path class="st0" d="M282.32,87.18h46.2c1.75,0,3.16-1.42,3.16-3.16c0-1.75-1.42-3.16-3.16-3.16h-46.2
			c-1.75,0-3.16,1.42-3.16,3.16C279.16,85.77,280.58,87.18,282.32,87.18z"/>
		<path class="st0" d="M26.25,87.26h46.2c1.75,0,3.16-1.42,3.16-3.16s-1.42-3.16-3.16-3.16h-46.2c-1.75,0-3.16,1.42-3.16,3.16
			S24.5,87.26,26.25,87.26z"/>
		<path class="st0" d="M87.2,87.26h2.68c1.75,0,3.16-1.42,3.16-3.16s-1.42-3.16-3.16-3.16H87.2c-1.75,0-3.16,1.42-3.16,3.16
			S85.45,87.26,87.2,87.26z"/>
		<path class="st0" d="M50.69,145.77L50.69,145.77c-1.75,0-3.16,1.42-3.16,3.16c0,1.75,1.42,3.16,3.16,3.16h0
			c1.75,0,3.16-1.42,3.16-3.16C53.85,147.19,52.44,145.77,50.69,145.77z"/>
		<path class="st0" d="M329.96,91.25h-4.11c-1.75,0-3.16,1.42-3.16,3.16v0c0,1.75,1.42,3.16,3.16,3.16h4.11
			c1.75,0,3.16-1.42,3.16-3.16v0C333.12,92.67,331.71,91.25,329.96,91.25z"/>
		<path class="st0" d="M340.71,91.25L340.71,91.25c-1.75,0-3.16,1.42-3.16,3.16v0c0,1.75,1.42,3.16,3.16,3.16h0
			c1.75,0,3.16-1.42,3.16-3.16v0C343.88,92.67,342.46,91.25,340.71,91.25z"/>
	</g>
	<g>
		<path class="st1" d="M321.44,208.25c0.25,6.64-17.78,22.92-57.73,26.93c-39.95,4.01-62.74-4.25-62.74-4.25s-10.05,2.15-17.02-5.86
			c0,0-4.89-4.55-13.31-10.83c-0.32-0.24-0.66-0.49-0.99-0.73c-15.96-11.76-43.67-28.96-74.7-34.02c0,0-2.84,0.62-5.76-2.8
			c-1.56-1.83-3.14-4.82-4.32-9.67c0,0-0.06,0-0.17-0.01c-0.71-0.07-3.49-0.47-4.73-2.94c-1.42-2.85-3.74-7.75-3.74-7.75
			s-0.79-2.79-0.79-4.06c0-1.26-1.53-4.32-2.21-5.59c-0.4-0.74-1.53-3.7-1.64-9.28c-0.08-3.92,0.35-9.15,1.9-15.81
			c0,0,1.82-5.37,4.99-9.51c0,0,1.92-2.06,4.63-2.64c2.71-0.57,9.4-1.35,9.4-1.35s19.48-14.4,62.34-16.27
			c32.45-1.41,51.19,5.05,58.37,8.27c2.3,1.03,3.42,1.73,3.42,1.73s5.16,2.44,11.04,5.88c5.88,3.44,34.41,23.66,34.41,23.66
			l39.42,21.79l5.43,6.93l4.33,5.52c0,0,0.16,1.98,0,3.41c0,0,4.44,5,4.6,13.01c0.16,8-0.39,15.06-1.9,18.16
			C313.95,200.15,321.19,201.61,321.44,208.25z"/>
		<path class="st2" d="M321.44,208.25c0.25,6.64-17.78,22.92-57.73,26.93c-39.95,4.01-62.74-4.25-62.74-4.25s-10.05,2.15-17.02-5.86
			c0,0-5.28-4.91-14.3-11.57l5.34-5.4l-0.36-7.14c0,0-1.62-11.18,6.98-17.69c8.6-6.52,20.2,2.42,24.96,10.27
			c4.76,7.85,6.68,16.78,7.27,20.45c0.58,3.67,1.67,10.1,1.67,10.1s26.88,10.35,50.51-1.59l40.32-15.19c0,0,5.57-2.4,7.63-7.15
			C313.95,200.15,321.19,201.61,321.44,208.25z"/>
		<path class="st2" d="M176.73,207.18l-6.09,7.05c-0.32-0.24-0.66-0.49-0.99-0.73c-15.96-11.76-43.67-28.96-74.7-34.02
			c0,0-2.84,0.62-5.76-2.8l10.64-18.53l75.55,43.56L176.73,207.18z"/>
		<path class="st3" d="M84.68,166.99c-0.71-0.07-3.49-0.47-4.73-2.94c-1.42-2.85-3.74-7.75-3.74-7.75s-0.79-2.79-0.79-4.06
			c0-1.26-1.53-4.32-2.21-5.59c-0.4-0.74-1.53-3.7-1.64-9.28l8.95,3.66l3.77,24.53L84.68,166.99z"/>
		<path class="st3" d="M210.97,203.12c0,0,2.03,4.38,2.6,7.95c0.57,3.57,1.78,12.98,1.78,12.98s28.97,10.14,46.98-0.32l3.57-1.05
			l4.46-9.25c0,0-7,3.57-11.37-4.3c-3.6-5.6-10.54-6-10.54-6H210.97z"/>
		<path class="st3" d="M315.83,179.88c0,0-9.57,7.75-10.04,12.66s-1.31,10.23-1.31,10.23l1.78,4.53c0,0,6.82-2.08,8.55-9.49
			C316.53,190.39,315.83,179.88,315.83,179.88z"/>
		<path class="st4" d="M284.42,206.38c0,0-12.37,3.56-14.06,7.05c-1.68,3.49-4.46,9.25-4.46,9.25l40.36-15.38l-1.78-4.53
			c0,0-1.37-2.71-4.32-1.74S284.42,206.38,284.42,206.38z"/>
		<path class="st5" d="M217.74,174.88l-12.32-1.63L73.47,121.56c0,0,1.82-5.37,4.99-9.51c0,0,1.92-2.06,4.63-2.64
			c2.71-0.57,9.4-1.35,9.4-1.35s19.48-14.4,62.34-16.27c32.45-1.41,51.19,5.05,58.37,8.27c-12.1,1.58-50.3,6.58-52.65,7.21
			c-2.8,0.75-0.73,3.89,0.53,4.68c1.25,0.79,20.36,24.46,26.62,33.56c6.25,9.1,26.96,21.84,31.4,25.14
			C223.54,173.97,217.74,174.88,217.74,174.88z"/>
		<path class="st3" d="M174.71,204.74c0,0,0.02,2.17-3.2,0.89c-3.21-1.27-67.65-30.42-67.65-30.42s-1.14-1.69,0-3.43l70.76,29.17
			C174.61,202.18,174.63,203.44,174.71,204.74z"/>
		<path class="st6" d="M82.46,136.28c-4.42,5.88-1.68,21.14-1.68,21.14l19.04,0.71c0,0,4.05,10.21,4.05,13.64l68.91,28.41
			c0,0-0.8-17.76,8.84-20.59c9.65-2.82,9.99-4.62,7.34-6.51c-2.65-1.88-81.81-34.07-81.81-34.07S87.98,128.94,82.46,136.28z"/>
		<path class="st2" d="M85,165.64c0,0-3.51,0.02-3.86-3.29c-0.35-3.31-2.3-22.12,8.35-17.13C85,165.64,85,165.64,85,165.64z"/>
		<path class="st7" d="M240.7,209.06c0,0-3.21,0.9-2.31,3.79c0.9,2.89,2.12,5.79,6.11,5.34c3.99-0.45,11.83-1.8,11.83-1.8
			s3.34-0.92,3.09-2.74c-0.26-1.82-1.67-5.62-4.76-5.74C251.56,207.77,240.7,209.06,240.7,209.06z"/>
		<path class="st7" d="M310.36,190.24c0,0,2.86-1.67,2.99,0.62c0.13,2.28,0,3.82,0,3.82s-0.2,1.05-1.46,1.71s-3.72,2.2-3.98,0v-2.8
			C307.9,193.59,307.76,191.23,310.36,190.24z"/>
		
			<ellipse transform="matrix(0.956 -0.2934 0.2934 0.956 -52.5947 65.3676)" class="st8" cx="191.63" cy="208.02" rx="16.25" ry="24.13"/>
		
			<ellipse transform="matrix(0.9856 -0.1688 0.1688 0.9856 -26.0822 17.8891)" class="st8" cx="92.17" cy="162.34" rx="8.36" ry="17.34"/>
		
			<ellipse transform="matrix(0.956 -0.2934 0.2934 0.956 -52.357 65.2538)" class="st9" cx="191.37" cy="207.18" rx="10.37" ry="16.29"/>
		
			<ellipse transform="matrix(0.9856 -0.1688 0.1688 0.9856 -26.2462 17.9318)" class="st9" cx="92.34" cy="163.33" rx="5.42" ry="12.72"/>
		<polygon class="st10" points="208.92,144.96 244.3,165.63 214.02,143.49 		"/>
		<polyline class="st10" points="253.57,135.84 273.68,150.25 255.39,135.25 253.57,135.84 		"/>
		<path class="st8" d="M162.86,110.81l53.16-7.7c0.55-0.08,1.11,0.03,1.59,0.32c2.73,1.64,12.29,7.38,15.45,9.41
			c3.12,2.01,21.48,15.09,27.06,19.08c0.68,0.49,0.54,1.54-0.26,1.82c-5.69,2-23.53,7.95-41.31,10.61
			c-13.31,1.99-20.21,2.99-23.54,3.46c-1.68,0.24-3.34-0.5-4.29-1.9c-4.89-7.18-20.2-29.18-27.95-34.67
			C162.58,111.12,162.65,110.84,162.86,110.81z"/>
		<path class="st8" d="M95.61,116c0,0-0.14,2.7,2.08,3.74c2.22,1.04,76.91,31.82,76.91,31.82s3.68,0.92,6.11-1.9
			s-0.83-6.36-0.83-6.36s-10.29-21.97-30.43-33.97C137.69,102.31,106.01,92.34,95.61,116z"/>
		<path class="st7" d="M210.01,180.58c-0.93,6.02,5.84,8.45,10.5,10.56c4.66,2.11,23.97,9.87,37.39,6.64c0,0,2.48-0.12,0-4.22
			c-2.48-4.1-4.1-6.64-4.1-6.64s-1.61-4.29-7.64-4.41c-6.02-0.12-25.21-0.68-30.31-2.98C210.75,177.23,210.01,180.58,210.01,180.58z
			"/>
		<path class="st7" d="M255.39,182.65l6.16,12.65c0,0,0.59,3.47,7.51,3.25s19.74-3.63,28.76-8.25c0,0,7.59-4.62,7-9.93
			c-0.59-5.31-2.53-13.41-2.53-13.41S292.08,176.83,255.39,182.65z"/>
		<path class="st4" d="M311.26,168.98c-1.53,5.55-3.06,8.61-3.9,10.04c-0.22,0.37-0.79,0.26-0.85-0.17l-2.02-12.78
			c1.61-1.64,2.22-4.33,2.45-6.02l4.33,5.52C311.26,165.57,311.41,167.56,311.26,168.98z"/>
		<path class="st11" d="M278.56,184.7l11.69-4.44c0,0,0.55,4.44-3.9,6.09C281.91,187.99,278.56,184.7,278.56,184.7z"/>
		<linearGradient id="SVGID_1_" gradientUnits="userSpaceOnUse" x1="108.9467" y1="126.5655" x2="138.5726" y2="99.8412">
			<stop  offset="0.0227" style="stop-color:#827784"/>
			<stop  offset="1" style="stop-color:#46475F"/>
		</linearGradient>
		<path class="st12" d="M102.77,120.97l20.53-18.15c0,0,14.08,1.38,19.37,4.5l-24.45,20.48L102.77,120.97z"/>
		<path class="st13" d="M98.15,127.38l6.68,2.63c0.79,0.31,1.11,1.24,0.7,1.98l-0.08,0.14c-0.35,0.61-1.09,0.86-1.74,0.59l-6.6-2.77
			c-0.78-0.33-1.09-1.27-0.65-1.99l0,0C96.8,127.37,97.52,127.13,98.15,127.38z"/>
		<path class="st13" d="M131.88,141.13l6.68,2.63c0.79,0.31,1.11,1.24,0.7,1.98l-0.08,0.14c-0.35,0.61-1.09,0.86-1.74,0.59
			l-6.6-2.77c-0.78-0.33-1.09-1.27-0.65-1.99v0C130.53,141.12,131.25,140.88,131.88,141.13z"/>
		<polygon class="st14" points="199.63,106.45 205.06,127.13 248.13,133.3 248.13,124.37 216.74,103.99 		"/>
		<linearGradient id="SVGID_2_" gradientUnits="userSpaceOnUse" x1="176.3364" y1="114.0373" x2="190.7016" y2="139.4507">
			<stop  offset="0.0227" style="stop-color:#9B898D"/>
			<stop  offset="0.8812" style="stop-color:#575870"/>
		</linearGradient>
		<path class="st15" d="M164.47,111.65l19.49-2.75c0,0,9.25,25.98,9.71,37.29c0,0-1.88-0.07-3.69-2.8
			C188.15,140.66,170.7,115.75,164.47,111.65z"/>
		<path class="st8" d="M133.63,104.57l-7.62,26.56l43.73,17.17l4.74-10.88C174.48,137.43,157.02,107.61,133.63,104.57z"/>
		<path class="st16" d="M133.56,104.5l-7.47,26.78l6.73,2.81l5.99-28.34C138.81,105.76,136.08,104.94,133.56,104.5z"/>
		<path class="st8" d="M173.78,150.04l-3.37-0.39c0,0-14.15,0.53-16.65,0.35c-1.38-0.1-2.18-1.25-2.62-2.77
			c-0.36-1.23-0.5-2.71-0.52-4.04c-0.06-2.97,4.23-3.32,4.23-3.32s7.29,0,10.55,0.82c1.19,0.29,2.1,1.18,2.79,2.19
			c1.19,1.75,1.69,3.86,1.69,3.86C172.91,147.04,173.78,150.04,173.78,150.04z"/>
		<path class="st17" d="M168.19,142.88v0.09c0,0-0.96,3.92-4.95,3.92c-2.72,0-8.61,0.21-12.11,0.34c-0.36-1.23-0.5-2.71-0.52-4.04
			c-0.06-2.97,4.23-3.32,4.23-3.32s7.29,0,10.55,0.82C166.58,140.99,167.5,141.88,168.19,142.88z"/>
	</g>
	<g>
		<path class="st18" d="M121.09,64.14l11.26,120.37c0.66,7.07,6.99,12.26,14.13,11.61l47.55-4.37c7.15-0.66,12.41-6.94,11.72-14.01
			l-11.6-120.37c-0.68-7.05-7-12.23-14.13-11.57l-47.21,4.37C125.68,50.83,120.43,57.08,121.09,64.14z"/>
		<path class="st19" d="M123.98,96.53c0,0-4.36-1.55-5.31,2.65c-1.31,5.77,1.54,8.55,6.85,12.53L123.98,96.53z"/>
		<path class="st20" d="M127.71,134.81c0,0-1.79-0.46-4.19-1.36c-5.49-2.06-14.15-6.48-11.65-13.18c1.64-4.4,8.55-4.49,12-4.24
			c1.2,0.08,1.98,0.21,1.98,0.21L127.71,134.81z"/>
		<path class="st21" d="M132.14,54.03l49.03-4.44c4.15-0.38,7.83,2.62,8.24,6.72l12.21,121.38c0.46,4.58-2.94,8.65-7.58,9.07
			l-47.78,4.34c-4.46,0.41-8.42-2.82-8.86-7.23L125.3,62.95C124.87,58.67,127.85,54.78,132.14,54.03L132.14,54.03z"/>
		<g>
			<defs>
				<path id="SVGID_3_" d="M132.14,54.03l49.03-4.44c4.15-0.38,7.83,2.62,8.24,6.72l12.21,121.38c0.46,4.58-2.94,8.65-7.58,9.07
					l-47.78,4.34c-4.46,0.41-8.42-2.82-8.86-7.23L125.3,62.95C124.87,58.67,127.85,54.78,132.14,54.03L132.14,54.03z"/>
			</defs>
			<clipPath id="SVGID_4_">
				<use xlink:href="#SVGID_3_"  style="overflow:visible;"/>
			</clipPath>
			<g class="st22">
				<g>
					
						<rect x="123.65" y="51.75" transform="matrix(0.9954 -0.0957 0.0957 0.9954 -7.9553 15.7611)" class="st23" width="73.42" height="78.16"/>
				</g>
				<g>
					<polygon class="st21" points="164.33,58.35 161.45,64.85 199.17,110.94 199.36,112.95 152.98,56.77 146.75,58.99 142.58,62.95 
						122.01,75.59 121.91,74.53 142.23,61.93 146.08,58.11 152.49,55.79 149.85,52.58 151.76,52.39 153.94,55.16 160.05,54.03 
						175.6,55.34 193.57,52.73 193.68,53.88 175.76,56.29 					"/>
				</g>
				<g>
					<polygon class="st23" points="154.57,56.05 160.55,63.72 163.59,57.75 173.02,55.76 160.39,54.84 					"/>
				</g>
				<g>
					<path class="st24" d="M174.51,111.59l-6.87-3.66l-5.09-4.18l-3.2-0.78l-2.23-4.47l1.92-4.37l4.97-7.82l0.66-2.27l1.31-1.25
						c0.02-0.02,3.4-3.96,3.5-5.79c0.09-1.6,0.63-2.96,1.07-4.05c0.1-0.26,0.2-0.51,0.29-0.75c0.22-0.61,0.53-1.69,0.82-2.73
						c0.31-1.11,0.64-2.26,0.89-2.96c0.33-0.89,1.49-2.97,1.84-3.58c1.33-2.37,1.58-2.63,1.71-2.67c0.01-0.01,0.02-0.02,0.04-0.03
						c0.23-0.19,0.75-0.62,2,0.13c1.03,0.62,1.39,0.59,1.43,0.55c0,0,0.18-0.25-0.68-1.66c-1.62-2.65-1.18-5.66-1.16-5.79l0.45-3
						l1.6-0.98l0.25,0.41l-1.41,0.86l-0.42,2.78c0,0.03-0.43,2.96,1.09,5.46c0.76,1.25,0.94,1.92,0.61,2.26
						c-0.2,0.2-0.62,0.36-2.02-0.48c-0.96-0.58-1.28-0.31-1.45-0.17c-0.05,0.04-0.1,0.08-0.15,0.11c-0.37,0.44-2.8,4.66-3.28,5.97
						c-0.25,0.68-0.57,1.82-0.88,2.92c-0.31,1.1-0.6,2.14-0.83,2.77c-0.09,0.24-0.19,0.5-0.3,0.76c-0.44,1.11-0.95,2.38-1.03,3.9
						c-0.11,1.99-3.49,5.93-3.63,6.1l-1.23,1.18l-0.66,2.24l-4.98,7.83l-1.8,4.12l2.03,4.07l3.09,0.75l5.16,4.23l6.81,3.62
						L174.51,111.59z M176.18,60.73C176.18,60.73,176.18,60.73,176.18,60.73C176.18,60.73,176.18,60.73,176.18,60.73z"/>
				</g>
				<g>
					<path class="st24" d="M197.53,98.86c-0.78-0.9-2.19-2.39-2.68-2.56c-0.75-0.27-1.75-1.86-1.96-2.2
						c-2.9-1.98-7.3-4.94-7.64-5.08c-0.43-0.12-3.68-3.27-4.76-4.83c-1-1.44-4.51-3.63-4.95-3.89l-2.98-0.35l-2.45-3.29l0.14-2.94
						l0.48,0.02l-0.13,2.77l2.22,2.98l2.88,0.33l0.04,0.03c0.16,0.1,4.02,2.44,5.14,4.06c1.06,1.52,4.14,4.47,4.52,4.64
						c0.33,0.09,5.57,3.64,7.81,5.17l0.04,0.03l0.03,0.05c0.42,0.7,1.27,1.87,1.74,2.04c0.77,0.27,2.67,2.46,2.88,2.7L197.53,98.86z
						"/>
				</g>
				<g>
					<path class="st24" d="M123.78,87.99l-0.35-0.33l1.14-1.22l-0.24-2.49l0.68-2.22c-0.76-0.58-1.79-1.84-1.04-3.08
						c0.38-0.62,0.27-1.47,0.18-2.21c-0.11-0.84-0.23-1.8,0.7-1.92l0.11-0.01c0.53-0.07,0.87-0.12,1-0.29
						c0.14-0.2,0.11-0.69-0.09-1.65c-0.47-2.18-0.14-3.58,1.33-5.75c0.4-0.59,0.98-1.4,1.59-2.26c1.64-2.29,3.67-5.13,3.99-6.13
						c0.03-0.09,0.06-0.19,0.09-0.3c0.39-1.25,1.04-3.34,2.35-3.85c0.53-0.2,1.1-0.12,1.7,0.23c2,1.19,2.46,0.75,2.46,0.74
						l0.05-0.13l0.11,0.03l2.63-0.5l2.63-1.39l2.06,1.23l-0.25,0.41l-1.82-1.09l-2.49,1.31l-2.59,0.49
						c-0.06,0.06-0.17,0.13-0.33,0.17c-0.58,0.15-1.49-0.14-2.7-0.86c-0.47-0.28-0.89-0.35-1.28-0.2c-1.09,0.42-1.72,2.45-2.06,3.54
						c-0.03,0.11-0.06,0.21-0.09,0.3c-0.34,1.07-2.32,3.83-4.06,6.27c-0.61,0.85-1.19,1.66-1.59,2.25c-1.4,2.07-1.7,3.33-1.26,5.38
						c0.25,1.16,0.25,1.69,0.01,2.03c-0.25,0.35-0.68,0.41-1.33,0.49l-0.11,0.01c-0.4,0.05-0.42,0.36-0.28,1.38
						c0.1,0.78,0.23,1.76-0.24,2.53c-0.77,1.26,1.03,2.52,1.05,2.54l0.14,0.1L124.82,84l0.25,2.61L123.78,87.99z"/>
				</g>
				<g>
					<g>
						<path class="st25" d="M146.93,119.08c-0.12-1.2,0.77-2.27,1.97-2.39s2.27,0.77,2.39,1.97c0.08,0.88-0.2,1.15-1.62,3.7
							c-0.09,0.17-0.32,0.19-0.45,0.04C147.35,120.18,147.02,119.96,146.93,119.08z M150.02,118.78c-0.05-0.5-0.49-0.87-1-0.82
							c-0.5,0.05-0.87,0.49-0.82,1c0.05,0.5,0.49,0.87,1,0.82S150.07,119.29,150.02,118.78z"/>
					</g>
				</g>
				<g>
					<g>
						<path d="M139.75,153.14c-0.1-1.03,0.66-1.95,1.69-2.05c1.03-0.1,1.95,0.66,2.05,1.69c0.07,0.75-0.17,0.99-1.39,3.17
							c-0.08,0.14-0.28,0.16-0.38,0.04C140.1,154.08,139.82,153.89,139.75,153.14z M142.4,152.89c-0.04-0.43-0.42-0.75-0.85-0.7
							s-0.75,0.42-0.7,0.85s0.42,0.75,0.85,0.7S142.44,153.32,142.4,152.89z"/>
					</g>
				</g>
				<g>
					<g>
						<path class="st25" d="M186.87,115.24c0.2,2.11-1.35,3.99-3.46,4.2c-2.11,0.2-3.99-1.35-4.2-3.46c-0.2-2.11,1.35-3.99,3.46-4.2
							C184.79,111.57,186.67,113.12,186.87,115.24z M184.09,113.79l-3.07,1.79c-0.35,0.21-0.18,0.74,0.22,0.7l1.36-0.13l0.13,1.36
							c0.04,0.39,0.59,0.47,0.73,0.08l1.17-3.35C184.72,113.92,184.37,113.63,184.09,113.79z"/>
					</g>
				</g>
				<g>
					<line x1="146.39" y1="156.6" x2="198.67" y2="151.57"/>
					
						<rect x="146.27" y="153.96" transform="matrix(0.9954 -0.0957 0.0957 0.9954 -13.9526 17.2166)" class="st26" width="52.52" height="0.24"/>
				</g>
				<g>
					<line x1="147.33" y1="166.34" x2="199.61" y2="161.32"/>
					
						<rect x="147.21" y="163.71" transform="matrix(0.9954 -0.0957 0.0957 0.9954 -14.8807 17.3509)" class="st26" width="52.52" height="0.24"/>
				</g>
				<g>
					<circle cx="187.84" cy="169.77" r="3.84"/>
				</g>
				<g>
					<path d="M142.98,167.18c-1.04,0.1-1.96-0.66-2.06-1.7c-0.1-1.04,0.66-1.96,1.7-2.06s1.96,0.66,2.06,1.7
						C144.78,166.16,144.02,167.08,142.98,167.18z M142.67,163.91c-0.77,0.07-1.34,0.76-1.26,1.53c0.07,0.77,0.76,1.34,1.53,1.26
						c0.77-0.07,1.34-0.76,1.26-1.53C144.13,164.4,143.44,163.83,142.67,163.91z"/>
				</g>
				<g>
					<g>
						<path d="M141.04,139.88l-0.36,2.36l-0.76,0.07l-1.29-3.27l0.8-0.08l0.82,2.37l0.41-2.49l0.56-0.05l0.87,2.37l0.35-2.48
							l0.81-0.08l-0.63,3.45l-0.76,0.07L141.04,139.88z"/>
					</g>
					<g>
						<path d="M145.4,140.3c-0.03-0.34-0.22-0.43-0.5-0.4c-0.25,0.02-0.43,0.18-0.53,0.34l0.16,1.64l-0.64,0.06l-0.32-3.36
							l0.64-0.06l0.12,1.24c0.14-0.2,0.42-0.42,0.82-0.46c0.53-0.05,0.82,0.22,0.86,0.69l0.17,1.73l-0.64,0.06L145.4,140.3z"/>
					</g>
					<g>
						<path d="M147.68,139.05c0.73-0.07,1.27,0.43,1.35,1.22l0.01,0.14l-1.81,0.17c0.07,0.3,0.34,0.54,0.75,0.5
							c0.23-0.02,0.49-0.14,0.63-0.3l0.32,0.39c-0.22,0.24-0.59,0.4-0.97,0.43c-0.74,0.07-1.35-0.37-1.42-1.15
							C146.48,139.74,146.94,139.13,147.68,139.05z M147.18,140.16l1.2-0.12c-0.04-0.23-0.23-0.52-0.65-0.48
							C147.33,139.6,147.19,139.92,147.18,140.16z"/>
					</g>
					<g>
						<path d="M149.37,138.95l0.64-0.06l0.03,0.33c0.15-0.23,0.44-0.43,0.74-0.46l0.06,0.62c-0.05-0.01-0.11-0.01-0.18,0
							c-0.21,0.02-0.48,0.17-0.57,0.33l0.15,1.61l-0.64,0.06L149.37,138.95z"/>
					</g>
					<g>
						<path d="M152.28,138.61c0.73-0.07,1.27,0.43,1.35,1.22l0.01,0.14l-1.81,0.17c0.07,0.3,0.34,0.54,0.75,0.5
							c0.23-0.02,0.49-0.14,0.63-0.3l0.32,0.39c-0.22,0.24-0.59,0.4-0.97,0.43c-0.74,0.07-1.35-0.37-1.42-1.15
							C151.08,139.3,151.54,138.68,152.28,138.61z M151.78,139.72l1.2-0.12c-0.04-0.23-0.23-0.52-0.65-0.48
							C151.93,139.16,151.79,139.47,151.78,139.72z"/>
					</g>
					<g>
						<path d="M155.56,140.2l-0.12-1.27l-0.4,0.04l-0.05-0.56l0.4-0.04l-0.06-0.67l0.65-0.06l0.06,0.67l0.49-0.05l0.05,0.56
							l-0.49,0.05l0.11,1.1c0.01,0.15,0.11,0.26,0.25,0.25c0.1-0.01,0.18-0.05,0.21-0.09l0.18,0.47c-0.09,0.09-0.25,0.18-0.52,0.21
							C155.87,140.85,155.61,140.64,155.56,140.2z"/>
					</g>
					<g>
						<path d="M156.93,139.45c-0.07-0.69,0.36-1.32,1.16-1.4c0.81-0.08,1.35,0.46,1.41,1.15c0.07,0.7-0.36,1.33-1.17,1.4
							C157.53,140.69,156.99,140.15,156.93,139.45z M158.84,139.27c-0.04-0.38-0.29-0.68-0.69-0.65c-0.4,0.04-0.59,0.39-0.55,0.77
							c0.04,0.38,0.29,0.69,0.69,0.65C158.68,140,158.87,139.65,158.84,139.27z"/>
					</g>
					<g>
						<path d="M160.48,138.19c0.15-0.13,0.27-0.23,0.26-0.39c-0.02-0.16-0.14-0.28-0.42-0.25c-0.25,0.02-0.45,0.17-0.59,0.37
							l-0.45-0.42c0.24-0.34,0.62-0.55,1.06-0.6c0.65-0.06,1.08,0.23,1.12,0.7c0.04,0.42-0.21,0.65-0.43,0.84
							c-0.16,0.15-0.31,0.27-0.29,0.46c0.01,0.08,0.06,0.16,0.11,0.2l-0.53,0.21c-0.12-0.11-0.19-0.25-0.21-0.43
							C160.06,138.55,160.29,138.36,160.48,138.19z M160.57,139.56c0.22-0.02,0.43,0.15,0.45,0.37s-0.15,0.43-0.37,0.45
							s-0.43-0.15-0.45-0.37S160.35,139.59,160.57,139.56z"/>
					</g>
				</g>
				<g>
					<g>
						<path class="st21" d="M188.73,169.64l0.01,0.15c0,0.02-0.01,0.04-0.03,0.04l-0.75,0.07l0.07,0.75c0,0.02-0.01,0.04-0.03,0.04
							l-0.15,0.01c-0.02,0-0.04-0.01-0.04-0.03l-0.07-0.75l-0.75,0.07c-0.02,0-0.04-0.01-0.04-0.03l-0.01-0.15
							c0-0.02,0.01-0.04,0.03-0.04l0.75-0.07l-0.07-0.75c0-0.02,0.01-0.04,0.03-0.04l0.15-0.01c0.02,0,0.04,0.01,0.04,0.03
							l0.07,0.75l0.75-0.07C188.71,169.6,188.73,169.61,188.73,169.64z"/>
					</g>
				</g>
				<g>
					<path class="st21" d="M153.33,113.06l-11.28,1.08c-2.24,0.22-4.24-1.43-4.46-3.67v0c-0.22-2.24,1.43-4.24,3.67-4.46l11.28-1.08
						c2.24-0.22,4.24,1.43,4.46,3.67v0C157.22,110.85,155.57,112.84,153.33,113.06z"/>
				</g>
				<g>
					<path class="st27" d="M158.79,183.79l-11.28,1.08c-2.24,0.22-4.24-1.43-4.46-3.67v0c-0.22-2.24,1.43-4.24,3.67-4.46l11.28-1.08
						c2.24-0.22,4.24,1.43,4.46,3.67l0,0C162.68,181.58,161.03,183.57,158.79,183.79z"/>
				</g>
				<g>
					<path d="M154.69,180.03c0,0.03,0,0.05-0.02,0.07l-0.06,0.09c-0.02,0.02-0.04,0.04-0.08,0.05c-0.03,0-0.05,0-0.07-0.02
						l-0.19-0.13l0.12,1.22c0.01,0.12-0.07,0.22-0.19,0.23l-0.84,0.08c-0.12,0.01-0.22-0.07-0.23-0.19l-0.07-0.68l-0.42,0.04
						l0.07,0.68c0.01,0.12-0.07,0.22-0.19,0.23l-0.84,0.08c-0.12,0.01-0.22-0.07-0.23-0.19l-0.12-1.22l-0.17,0.17
						c-0.02,0.02-0.04,0.03-0.07,0.03c-0.03,0-0.06-0.01-0.08-0.03l-0.07-0.07c-0.02-0.02-0.03-0.04-0.03-0.07
						c0-0.03,0.01-0.06,0.03-0.08l1.49-1.48c0.06-0.06,0.14-0.1,0.23-0.11s0.17,0.02,0.24,0.06l0.99,0.67l-0.04-0.37
						c0-0.03,0.02-0.05,0.05-0.06l0.21-0.02c0.03,0,0.05,0.02,0.06,0.05l0.06,0.63l0.41,0.28
						C154.67,179.97,154.68,180,154.69,180.03z M153.93,179.85l-1.25-0.84l-1.06,1.06l0.13,1.38l0.63-0.06l-0.07-0.68
						c-0.01-0.12,0.07-0.22,0.19-0.23l0.63-0.06c0.12-0.01,0.22,0.07,0.23,0.19l0.07,0.68l0.63-0.06L153.93,179.85z"/>
				</g>
				<g>
					<path class="st27" d="M181.17,181.43l-11.28,1.08c-2.24,0.22-4.24-1.43-4.46-3.67l0,0c-0.22-2.24,1.43-4.24,3.67-4.46
						l11.28-1.08c2.24-0.22,4.24,1.43,4.46,3.67v0C185.06,179.22,183.41,181.21,181.17,181.43z"/>
				</g>
				<g>
					<path d="M176.6,177.16l0.16,1.68c0.02,0.17-0.11,0.33-0.28,0.35l-2.73,0.26c-0.17,0.02-0.33-0.11-0.35-0.28l-0.16-1.68
						c-0.02-0.17,0.11-0.33,0.28-0.35l0.53-0.05l-0.03-0.32c-0.02-0.17,0.11-0.33,0.28-0.35l1.05-0.1c0.17-0.02,0.33,0.11,0.35,0.28
						l0.03,0.32l0.53-0.05C176.43,176.86,176.58,176.99,176.6,177.16z M173.56,177.49l0.05,0.49l2.73-0.26l-0.05-0.49
						c0-0.02-0.02-0.04-0.04-0.04l-2.65,0.25C173.57,177.45,173.55,177.47,173.56,177.49z M176.44,178.83l-0.08-0.8l-0.95,0.09
						l0.02,0.16c0.01,0.09-0.06,0.16-0.14,0.17l-0.53,0.05c-0.09,0.01-0.16-0.06-0.17-0.14l-0.02-0.16l-0.95,0.09l0.08,0.8
						c0,0.02,0.02,0.04,0.04,0.04l2.65-0.25C176.43,178.87,176.44,178.85,176.44,178.83z M174.36,177.06l1.05-0.1l-0.03-0.32
						l-1.05,0.1L174.36,177.06z"/>
				</g>
				<g>
					
						<rect x="141.27" y="108.31" transform="matrix(0.9954 -0.0957 0.0957 0.9954 -9.7279 14.5865)" class="st28" width="11.9" height="0.82"/>
				</g>
				<g>
					
						<rect x="141.46" y="110.38" transform="matrix(0.9954 -0.0957 0.0957 0.9954 -9.9371 14.3624)" class="st28" width="6.65" height="0.82"/>
				</g>
				<g>
					
						<rect x="174.27" y="68.07" transform="matrix(0.9954 -0.0957 0.0957 0.9954 -5.7257 17.5596)" class="st28" width="11.9" height="0.82"/>
				</g>
				<g>
					
						<rect x="174.46" y="70.14" transform="matrix(0.9954 -0.0957 0.0957 0.9954 -5.9349 17.3355)" class="st28" width="6.65" height="0.82"/>
				</g>
			</g>
		</g>
		<path class="st29" d="M135.44,172.56c-6.86,3.2-14.78-2.15-17.27-10.22c-0.52-1.69-0.81-3.51-0.8-5.39
			c0.07-10.83,11.32-10.69,11.32-10.69l0.84,7.74c0,0,7.41,7.67,8.4,13.38C138.32,169.57,137.75,171.48,135.44,172.56z"/>
		<g>
			<path class="st21" d="M128.97,170.56c-0.33,0-0.63-0.12-0.87-0.35c-1.62-1.52-4.32-4.46-4.18-7.13c0.06-1.09,0.58-2.01,1.55-2.74
				c3.16-2.38,7.25,1.54,8.86,3.34c0.45,0.5,0.44,1.24-0.02,1.73l-4.4,4.74c-0.23,0.25-0.55,0.4-0.9,0.41
				C129,170.56,128.98,170.56,128.97,170.56z M125.67,160.61l0.2,0.27c-0.82,0.62-1.24,1.35-1.28,2.24
				c-0.13,2.49,2.73,5.44,3.97,6.6c0.12,0.11,0.27,0.17,0.43,0.16c0.16-0.01,0.31-0.07,0.43-0.19l4.4-4.74
				c0.22-0.23,0.22-0.58,0.01-0.82c-1.49-1.66-5.24-5.29-7.95-3.25L125.67,160.61z"/>
		</g>
		<path class="st30" d="M135.44,172.56c-6.86,3.2-14.78-2.15-17.27-10.22l0,0c0,0,6.71,16.11,19.76,5.03
			C138.32,169.57,137.75,171.48,135.44,172.56z"/>
		<path class="st30" d="M128.69,146.26l0.84,7.74l-7-6.19C122.53,147.8,124.66,146.64,128.69,146.26z"/>
		<path class="st31" d="M260.07,281.51h-76.02c0,0-14.96-39.28-17.39-41.32c-2.44-2.03-17.87-19.29-21.93-25.99
			c-0.29-0.48-0.61-0.99-0.97-1.52c0,0,0,0,0,0c-4.43-6.76-12.64-16.49-12.64-16.49s2.64-6.91,5.09-3.66c2.44,3.25,9,3.66,9,3.66
			l36.9-3.33c0,0,4.91-8.74,8.07-13.9c3.17-5.15,8.81-39.88,6.16-47.65c0,0,0-0.01,0-0.01c-2.22-6.45-1.21-16.73,3.24-17.65
			c12.72-2.23,21.49,53.88,17.26,69.04c-4.15,14.86,4.45,33.34,4.45,33.34C223.32,222.33,260.07,281.51,260.07,281.51z"/>
		<path class="st32" d="M182.12,192.85l-1.73,5.38c-38.59-3.7-36.66,14.07-36.62,14.44c-4.43-6.76-12.64-16.49-12.64-16.49
			s2.64-6.91,5.09-3.66c2.44,3.25,9,3.66,9,3.66L182.12,192.85z"/>
		<path class="st32" d="M190.19,178.95c3.17-5.15,8.81-39.88,6.16-47.65c0.08,0.14,1.43,2.49,1.85,5.31
			C198.62,139.52,202.28,168.15,190.19,178.95z"/>
		<path class="st29" d="M143.5,194.25c-0.1,2.23-1.65,3.76-3.1,4.17c-9.03,1.2-14.83-1.92-17.54-7.23c0,0,0,0,0,0
			c-1.2-2.34-1.8-5.09-1.82-8.09c-0.06-9.77,10.09-9.77,10.09-9.77l0.68,6.79c0,0,3.14,2.51,8.6,7.89
			C142.79,190.36,143.58,192.51,143.5,194.25z"/>
		<g>
			<path class="st21" d="M135.61,195.97c-0.24,0-0.49-0.05-0.72-0.15c-0.95-0.43-4.12-2.01-4.81-4.51c-0.31-1.14-0.07-2.28,0.73-3.4
				l0,0c0.6-0.85,1.38-1.35,2.32-1.48c2.06-0.29,4.39,1.27,5.59,2.23c0.64,0.51,0.84,1.38,0.48,2.12l-2.02,4.21
				C136.87,195.61,136.26,195.97,135.61,195.97z M131.08,188.1l0.28,0.2c-0.67,0.95-0.88,1.9-0.63,2.83
				c0.61,2.22,3.54,3.67,4.43,4.07c0.54,0.24,1.15,0.02,1.4-0.51l2.02-4.21c0.22-0.45,0.1-0.98-0.29-1.29
				c-1.12-0.89-3.27-2.35-5.07-2.09c-0.76,0.11-1.37,0.5-1.87,1.2L131.08,188.1z"/>
		</g>
		<path class="st33" d="M143.5,194.25c-0.1,2.23-1.65,3.76-3.1,4.17c-9.03,1.2-14.83-1.92-17.54-7.23
			C123.12,191.44,133.71,201.93,143.5,194.25z"/>
		<path class="st34" d="M131.8,180.11l-6.55-5.13c0,0,2.71-1.76,5.87-1.66C131.8,179.8,131.8,180.11,131.8,180.11z"/>
		<g>
			<path class="st21" d="M210.76,128.95C210.76,128.95,210.76,128.95,210.76,128.95c-7.78-0.02-9.22-5.79-9.99-8.89
				c-0.07-0.27-0.13-0.53-0.2-0.77c-0.11-0.4-0.04-0.83,0.18-1.18c0.22-0.35,0.58-0.6,0.99-0.68l3.49-0.66
				c0.18-0.03,0.36,0.09,0.4,0.27c0.03,0.18-0.09,0.36-0.27,0.4l-3.49,0.66c-0.23,0.04-0.42,0.18-0.55,0.37
				c-0.12,0.19-0.16,0.42-0.1,0.64c0.06,0.24,0.13,0.5,0.2,0.78c0.78,3.13,2.08,8.36,9.33,8.38c0.19,0,0.34,0.15,0.34,0.34
				C211.1,128.8,210.95,128.95,210.76,128.95z"/>
		</g>
		<g>
			<path class="st35" d="M186.05,224.24c-0.1,0-0.21-0.05-0.27-0.14c-0.11-0.15-11.34-15.53-3.97-31.4
				c0.08-0.17,0.28-0.24,0.45-0.16c0.17,0.08,0.24,0.28,0.16,0.45c-7.2,15.51,3.79,30.56,3.9,30.71c0.11,0.15,0.08,0.36-0.07,0.47
				C186.19,224.22,186.12,224.24,186.05,224.24z"/>
		</g>
		<g>
			<path class="st35" d="M173.05,224.24c-0.13,0-0.25-0.07-0.31-0.2c-3.87-8.39-0.18-23.95-0.02-24.61
				c0.04-0.18,0.23-0.29,0.41-0.25c0.18,0.04,0.29,0.23,0.25,0.41c-0.04,0.16-3.79,15.99-0.02,24.17c0.08,0.17,0,0.37-0.17,0.45
				C173.14,224.23,173.09,224.24,173.05,224.24z"/>
		</g>
		<g>
			<path class="st35" d="M205.82,262.43c-0.12,0-0.23-0.06-0.29-0.17l-17.97-30.38c-0.1-0.16-0.04-0.37,0.12-0.46
				c0.16-0.1,0.37-0.04,0.46,0.12l17.97,30.38c0.1,0.16,0.04,0.37-0.12,0.46C205.94,262.41,205.88,262.43,205.82,262.43z"/>
		</g>
	</g>
</g>
</svg>