<svg width="1275" height="1080" viewBox="0 0 1275 1080" fill="none" xmlns="http://www.w3.org/2000/svg">
<g clip-path="url(#clip0_2_2)">
<rect width="1275" height="1080" fill="white"/>
<g clip-path="url(#clip1_2_2)">
<path d="M635 -5H0V630H635V-5Z" fill="#2A2A30"/>
<path d="M249.115 58.5C249.115 74.0458 242.94 88.9548 231.947 99.9474C220.955 110.94 206.046 117.115 190.5 117.115C174.954 117.115 160.045 110.94 149.053 99.9474C138.06 88.9548 131.885 74.0458 131.885 58.5C131.885 42.9543 138.06 28.0452 149.053 17.0527C160.045 6.06017 174.954 -0.115356 190.5 -0.115356C206.046 -0.115356 220.955 6.06017 231.947 17.0527C242.94 28.0452 249.115 42.9543 249.115 58.5ZM630.115 185.5C630.115 201.046 623.94 215.955 612.947 226.947C601.955 237.94 587.046 244.115 571.5 244.115C555.954 244.115 541.045 237.94 530.053 226.947C519.06 215.955 512.885 201.046 512.885 185.5C512.885 169.954 519.06 155.045 530.053 144.053C541.045 133.06 555.954 126.885 571.5 126.885C587.046 126.885 601.955 133.06 612.947 144.053C623.94 155.045 630.115 169.954 630.115 185.5ZM630.115 312.5C630.115 328.046 623.94 342.955 612.947 353.947C601.955 364.94 587.046 371.115 571.5 371.115C555.954 371.115 541.045 364.94 530.053 353.947C519.06 342.955 512.885 328.046 512.885 312.5C512.885 296.954 519.06 282.045 530.053 271.053C541.045 260.06 555.954 253.885 571.5 253.885C587.046 253.885 601.955 260.06 612.947 271.053C623.94 282.045 630.115 296.954 630.115 312.5ZM249.115 312.5C249.115 328.046 242.94 342.955 231.947 353.947C220.955 364.94 206.046 371.115 190.5 371.115C174.954 371.115 160.045 364.94 149.053 353.947C138.06 342.955 131.885 328.046 131.885 312.5C131.885 296.954 138.06 282.045 149.053 271.053C160.045 260.06 174.954 253.885 190.5 253.885C206.046 253.885 220.955 260.06 231.947 271.053C242.94 282.045 249.115 296.954 249.115 312.5ZM376.115 566.5C376.115 582.046 369.94 596.955 358.947 607.947C347.955 618.94 333.046 625.115 317.5 625.115C301.954 625.115 287.045 618.94 276.053 607.947C265.06 596.955 258.885 582.046 258.885 566.5C258.885 550.954 265.06 536.045 276.053 525.053C287.045 514.06 301.954 507.885 317.5 507.885C333.046 507.885 347.955 514.06 358.947 525.053C369.94 536.045 376.115 550.954 376.115 566.5Z" fill="#ECC94B"/>
<path d="M630.115 439.5C630.115 455.046 623.94 469.955 612.947 480.947C601.955 491.94 587.046 498.115 571.5 498.115C555.954 498.115 541.045 491.94 530.053 480.947C519.06 469.955 512.885 455.046 512.885 439.5C512.885 423.954 519.06 409.045 530.053 398.053C541.045 387.06 555.954 380.885 571.5 380.885C587.046 380.885 601.955 387.06 612.947 398.053C623.94 409.045 630.115 423.954 630.115 439.5ZM630.115 58.5C630.115 74.0458 623.94 88.9548 612.947 99.9474C601.955 110.94 587.046 117.115 571.5 117.115C555.954 117.115 541.045 110.94 530.053 99.9474C519.06 88.9548 512.885 74.0458 512.885 58.5C512.885 42.9543 519.06 28.0452 530.053 17.0527C541.045 6.06017 555.954 -0.115356 571.5 -0.115356C587.046 -0.115356 601.955 6.06017 612.947 17.0527C623.94 28.0452 630.115 42.9543 630.115 58.5ZM503.115 185.5C503.115 193.198 501.599 200.82 498.654 207.931C495.708 215.043 491.39 221.504 485.947 226.947C480.504 232.39 474.043 236.708 466.931 239.654C459.82 242.599 452.197 244.115 444.5 244.115C436.803 244.115 429.18 242.599 422.069 239.654C414.957 236.708 408.496 232.39 403.053 226.947C397.61 221.504 393.292 215.043 390.346 207.931C387.401 200.82 385.885 193.198 385.885 185.5C385.885 169.954 392.06 155.045 403.053 144.053C414.045 133.06 428.954 126.885 444.5 126.885C460.046 126.885 474.955 133.06 485.947 144.053C496.94 155.045 503.115 169.954 503.115 185.5ZM503.115 439.5C503.115 447.198 501.599 454.82 498.654 461.931C495.708 469.043 491.39 475.504 485.947 480.947C480.504 486.39 474.043 490.708 466.931 493.654C459.82 496.599 452.197 498.115 444.5 498.115C436.803 498.115 429.18 496.599 422.069 493.654C414.957 490.708 408.496 486.39 403.053 480.947C397.61 475.504 393.292 469.043 390.346 461.931C387.401 454.82 385.885 447.198 385.885 439.5C385.885 423.954 392.06 409.045 403.053 398.053C414.045 387.06 428.954 380.885 444.5 380.885C460.046 380.885 474.955 387.06 485.947 398.053C496.94 409.045 503.115 423.954 503.115 439.5ZM249.115 566.5C249.115 582.046 242.94 596.955 231.947 607.947C220.955 618.94 206.046 625.115 190.5 625.115C174.954 625.115 160.045 618.94 149.053 607.947C138.06 596.955 131.885 582.046 131.885 566.5C131.885 550.954 138.06 536.045 149.053 525.053C160.045 514.06 174.954 507.885 190.5 507.885C206.046 507.885 220.955 514.06 231.947 525.053C242.94 536.045 249.115 550.954 249.115 566.5Z" fill="#F44336"/>
<path d="M503.115 312.5C503.115 320.198 501.599 327.82 498.654 334.931C495.708 342.043 491.39 348.504 485.947 353.947C480.504 359.39 474.043 363.708 466.931 366.654C459.82 369.599 452.197 371.115 444.5 371.115C436.803 371.115 429.18 369.599 422.069 366.654C414.957 363.708 408.496 359.39 403.053 353.947C397.61 348.504 393.292 342.043 390.346 334.931C387.401 327.82 385.885 320.198 385.885 312.5C385.885 296.954 392.06 282.045 403.053 271.053C414.045 260.06 428.954 253.885 444.5 253.885C460.046 253.885 474.955 260.06 485.947 271.053C496.94 282.045 503.115 296.954 503.115 312.5ZM376.115 185.5C376.115 201.046 369.94 215.955 358.947 226.947C347.955 237.94 333.046 244.115 317.5 244.115C301.954 244.115 287.045 237.94 276.053 226.947C265.06 215.955 258.885 201.046 258.885 185.5C258.885 169.954 265.06 155.045 276.053 144.053C287.045 133.06 301.954 126.885 317.5 126.885C333.046 126.885 347.955 133.06 358.947 144.053C369.94 155.045 376.115 169.954 376.115 185.5ZM376.115 58.5C376.115 74.0458 369.94 88.9548 358.947 99.9474C347.955 110.94 333.046 117.115 317.5 117.115C301.954 117.115 287.045 110.94 276.053 99.9474C265.06 88.9548 258.885 74.0458 258.885 58.5C258.885 42.9543 265.06 28.0452 276.053 17.0527C287.045 6.06017 301.954 -0.115356 317.5 -0.115356C333.046 -0.115356 347.955 6.06017 358.947 17.0527C369.94 28.0452 376.115 42.9543 376.115 58.5ZM122.115 439.5C122.115 447.198 120.599 454.82 117.654 461.931C114.708 469.043 110.39 475.504 104.947 480.947C99.5044 486.39 93.0427 490.708 85.9311 493.654C78.8196 496.599 71.1975 498.115 63.5 498.115C55.8025 498.115 48.1804 496.599 41.0689 493.654C33.9573 490.708 27.4956 486.39 22.0527 480.947C16.6097 475.504 12.2921 469.043 9.34644 461.931C6.40074 454.82 4.88461 447.198 4.88461 439.5C4.88461 423.954 11.0601 409.045 22.0527 398.053C33.0452 387.06 47.9542 380.885 63.5 380.885C79.0458 380.885 93.9548 387.06 104.947 398.053C115.94 409.045 122.115 423.954 122.115 439.5ZM122.115 566.5C122.115 574.198 120.599 581.82 117.654 588.931C114.708 596.043 110.39 602.504 104.947 607.947C99.5044 613.39 93.0427 617.708 85.9311 620.654C78.8196 623.599 71.1975 625.115 63.5 625.115C55.8025 625.115 48.1804 623.599 41.0689 620.654C33.9573 617.708 27.4956 613.39 22.0527 607.947C16.6097 602.504 12.2921 596.043 9.34644 588.931C6.40074 581.82 4.88461 574.198 4.88461 566.5C4.88461 550.954 11.0601 536.045 22.0527 525.053C33.0452 514.06 47.9542 507.885 63.5 507.885C79.0458 507.885 93.9548 514.06 104.947 525.053C115.94 536.045 122.115 550.954 122.115 566.5Z" fill="#00BCD4"/>
<path d="M503.115 566.5C503.115 574.198 501.599 581.82 498.654 588.931C495.708 596.043 491.39 602.504 485.947 607.947C480.504 613.39 474.043 617.708 466.931 620.654C459.82 623.599 452.197 625.115 444.5 625.115C436.803 625.115 429.18 623.599 422.069 620.654C414.957 617.708 408.496 613.39 403.053 607.947C397.61 602.504 393.292 596.043 390.346 588.931C387.401 581.82 385.885 574.198 385.885 566.5C385.885 550.954 392.06 536.045 403.053 525.053C414.045 514.06 428.954 507.885 444.5 507.885C460.046 507.885 474.955 514.06 485.947 525.053C496.94 536.045 503.115 550.954 503.115 566.5ZM122.115 58.5C122.115 66.1975 120.599 73.8196 117.654 80.9312C114.708 88.0427 110.39 94.5044 104.947 99.9474C99.5044 105.39 93.0427 109.708 85.9311 112.654C78.8196 115.599 71.1975 117.115 63.5 117.115C55.8025 117.115 48.1804 115.599 41.0689 112.654C33.9573 109.708 27.4956 105.39 22.0527 99.9474C16.6097 94.5044 12.2921 88.0427 9.34644 80.9312C6.40074 73.8196 4.88461 66.1975 4.88461 58.5C4.88461 42.9543 11.0601 28.0452 22.0527 17.0527C33.0452 6.06017 47.9542 -0.115356 63.5 -0.115356C79.0458 -0.115356 93.9548 6.06017 104.947 17.0527C115.94 28.0452 122.115 42.9543 122.115 58.5ZM122.115 312.5C122.115 320.198 120.599 327.82 117.654 334.931C114.708 342.043 110.39 348.504 104.947 353.947C99.5044 359.39 93.0427 363.708 85.9311 366.654C78.8196 369.599 71.1975 371.115 63.5 371.115C55.8025 371.115 48.1804 369.599 41.0689 366.654C33.9573 363.708 27.4956 359.39 22.0527 353.947C16.6097 348.504 12.2921 342.043 9.34644 334.931C6.40074 327.82 4.88461 320.198 4.88461 312.5C4.88461 296.954 11.0601 282.045 22.0527 271.053C33.0452 260.06 47.9542 253.885 63.5 253.885C79.0458 253.885 93.9548 260.06 104.947 271.053C115.94 282.045 122.115 296.954 122.115 312.5ZM376.115 439.5C376.115 455.046 369.94 469.955 358.947 480.947C347.955 491.94 333.046 498.115 317.5 498.115C301.954 498.115 287.045 491.94 276.053 480.947C265.06 469.955 258.885 455.046 258.885 439.5C258.885 423.954 265.06 409.045 276.053 398.053C287.045 387.06 301.954 380.885 317.5 380.885C333.046 380.885 347.955 387.06 358.947 398.053C369.94 409.045 376.115 423.954 376.115 439.5ZM249.115 185.5C249.115 201.046 242.94 215.955 231.947 226.947C220.955 237.94 206.046 244.115 190.5 244.115C174.954 244.115 160.045 237.94 149.053 226.947C138.06 215.955 131.885 201.046 131.885 185.5C131.885 169.954 138.06 155.045 149.053 144.053C160.045 133.06 174.954 126.885 190.5 126.885C206.046 126.885 220.955 133.06 231.947 144.053C242.94 155.045 249.115 169.954 249.115 185.5Z" fill="#805AD5"/>
</g>
<g clip-path="url(#clip2_2_2)">
<path d="M1270 -5H635V630H1270V-5Z" fill="#2A2A30"/>
<path d="M884.115 58.5C884.115 74.0458 877.94 88.9548 866.947 99.9474C855.955 110.94 841.046 117.115 825.5 117.115C809.954 117.115 795.045 110.94 784.053 99.9474C773.06 88.9548 766.885 74.0458 766.885 58.5C766.885 42.9543 773.06 28.0452 784.053 17.0527C795.045 6.06017 809.954 -0.115356 825.5 -0.115356C841.046 -0.115356 855.955 6.06017 866.947 17.0527C877.94 28.0452 884.115 42.9543 884.115 58.5ZM1265.12 185.5C1265.12 201.046 1258.94 215.955 1247.95 226.947C1236.95 237.94 1222.05 244.115 1206.5 244.115C1190.95 244.115 1176.05 237.94 1165.05 226.947C1154.06 215.955 1147.88 201.046 1147.88 185.5C1147.88 169.954 1154.06 155.045 1165.05 144.053C1176.05 133.06 1190.95 126.885 1206.5 126.885C1222.05 126.885 1236.95 133.06 1247.95 144.053C1258.94 155.045 1265.12 169.954 1265.12 185.5ZM1265.12 312.5C1265.12 328.046 1258.94 342.955 1247.95 353.947C1236.95 364.94 1222.05 371.115 1206.5 371.115C1190.95 371.115 1176.05 364.94 1165.05 353.947C1154.06 342.955 1147.88 328.046 1147.88 312.5C1147.88 296.954 1154.06 282.045 1165.05 271.053C1176.05 260.06 1190.95 253.885 1206.5 253.885C1222.05 253.885 1236.95 260.06 1247.95 271.053C1258.94 282.045 1265.12 296.954 1265.12 312.5ZM884.115 312.5C884.115 328.046 877.94 342.955 866.947 353.947C855.955 364.94 841.046 371.115 825.5 371.115C809.954 371.115 795.045 364.94 784.053 353.947C773.06 342.955 766.885 328.046 766.885 312.5C766.885 296.954 773.06 282.045 784.053 271.053C795.045 260.06 809.954 253.885 825.5 253.885C841.046 253.885 855.955 260.06 866.947 271.053C877.94 282.045 884.115 296.954 884.115 312.5ZM1011.12 566.5C1011.12 582.046 1004.94 596.955 993.947 607.947C982.955 618.94 968.046 625.115 952.5 625.115C936.954 625.115 922.045 618.94 911.053 607.947C900.06 596.955 893.885 582.046 893.885 566.5C893.885 550.954 900.06 536.045 911.053 525.053C922.045 514.06 936.954 507.885 952.5 507.885C968.046 507.885 982.955 514.06 993.947 525.053C1004.94 536.045 1011.12 550.954 1011.12 566.5Z" fill="#ECC94B"/>
<path d="M1265.12 439.5C1265.12 455.046 1258.94 469.955 1247.95 480.947C1236.95 491.94 1222.05 498.115 1206.5 498.115C1190.95 498.115 1176.05 491.94 1165.05 480.947C1154.06 469.955 1147.88 455.046 1147.88 439.5C1147.88 423.954 1154.06 409.045 1165.05 398.053C1176.05 387.06 1190.95 380.885 1206.5 380.885C1222.05 380.885 1236.95 387.06 1247.95 398.053C1258.94 409.045 1265.12 423.954 1265.12 439.5ZM1265.12 58.5C1265.12 74.0458 1258.94 88.9548 1247.95 99.9474C1236.95 110.94 1222.05 117.115 1206.5 117.115C1190.95 117.115 1176.05 110.94 1165.05 99.9474C1154.06 88.9548 1147.88 74.0458 1147.88 58.5C1147.88 42.9543 1154.06 28.0452 1165.05 17.0527C1176.05 6.06017 1190.95 -0.115356 1206.5 -0.115356C1222.05 -0.115356 1236.95 6.06017 1247.95 17.0527C1258.94 28.0452 1265.12 42.9543 1265.12 58.5ZM1138.12 185.5C1138.12 193.198 1136.6 200.82 1133.65 207.931C1130.71 215.043 1126.39 221.504 1120.95 226.947C1115.5 232.39 1109.04 236.708 1101.93 239.654C1094.82 242.599 1087.2 244.115 1079.5 244.115C1071.8 244.115 1064.18 242.599 1057.07 239.654C1049.96 236.708 1043.5 232.39 1038.05 226.947C1032.61 221.504 1028.29 215.043 1025.35 207.931C1022.4 200.82 1020.88 193.198 1020.88 185.5C1020.88 169.954 1027.06 155.045 1038.05 144.053C1049.05 133.06 1063.95 126.885 1079.5 126.885C1095.05 126.885 1109.95 133.06 1120.95 144.053C1131.94 155.045 1138.12 169.954 1138.12 185.5ZM1138.12 439.5C1138.12 447.198 1136.6 454.82 1133.65 461.931C1130.71 469.043 1126.39 475.504 1120.95 480.947C1115.5 486.39 1109.04 490.708 1101.93 493.654C1094.82 496.599 1087.2 498.115 1079.5 498.115C1071.8 498.115 1064.18 496.599 1057.07 493.654C1049.96 490.708 1043.5 486.39 1038.05 480.947C1032.61 475.504 1028.29 469.043 1025.35 461.931C1022.4 454.82 1020.88 447.198 1020.88 439.5C1020.88 423.954 1027.06 409.045 1038.05 398.053C1049.05 387.06 1063.95 380.885 1079.5 380.885C1095.05 380.885 1109.95 387.06 1120.95 398.053C1131.94 409.045 1138.12 423.954 1138.12 439.5ZM884.115 566.5C884.115 582.046 877.94 596.955 866.947 607.947C855.955 618.94 841.046 625.115 825.5 625.115C809.954 625.115 795.045 618.94 784.053 607.947C773.06 596.955 766.885 582.046 766.885 566.5C766.885 550.954 773.06 536.045 784.053 525.053C795.045 514.06 809.954 507.885 825.5 507.885C841.046 507.885 855.955 514.06 866.947 525.053C877.94 536.045 884.115 550.954 884.115 566.5Z" fill="#F44336"/>
<path d="M1138.12 312.5C1138.12 320.198 1136.6 327.82 1133.65 334.931C1130.71 342.043 1126.39 348.504 1120.95 353.947C1115.5 359.39 1109.04 363.708 1101.93 366.654C1094.82 369.599 1087.2 371.115 1079.5 371.115C1071.8 371.115 1064.18 369.599 1057.07 366.654C1049.96 363.708 1043.5 359.39 1038.05 353.947C1032.61 348.504 1028.29 342.043 1025.35 334.931C1022.4 327.82 1020.88 320.198 1020.88 312.5C1020.88 296.954 1027.06 282.045 1038.05 271.053C1049.05 260.06 1063.95 253.885 1079.5 253.885C1095.05 253.885 1109.95 260.06 1120.95 271.053C1131.94 282.045 1138.12 296.954 1138.12 312.5ZM1011.12 185.5C1011.12 201.046 1004.94 215.955 993.947 226.947C982.955 237.94 968.046 244.115 952.5 244.115C936.954 244.115 922.045 237.94 911.053 226.947C900.06 215.955 893.885 201.046 893.885 185.5C893.885 169.954 900.06 155.045 911.053 144.053C922.045 133.06 936.954 126.885 952.5 126.885C968.046 126.885 982.955 133.06 993.947 144.053C1004.94 155.045 1011.12 169.954 1011.12 185.5ZM1011.12 58.5C1011.12 74.0458 1004.94 88.9548 993.947 99.9474C982.955 110.94 968.046 117.115 952.5 117.115C936.954 117.115 922.045 110.94 911.053 99.9474C900.06 88.9548 893.885 74.0458 893.885 58.5C893.885 42.9543 900.06 28.0452 911.053 17.0527C922.045 6.06017 936.954 -0.115356 952.5 -0.115356C968.046 -0.115356 982.955 6.06017 993.947 17.0527C1004.94 28.0452 1011.12 42.9543 1011.12 58.5ZM757.115 439.5C757.115 447.198 755.599 454.82 752.654 461.931C749.708 469.043 745.39 475.504 739.947 480.947C734.504 486.39 728.043 490.708 720.931 493.654C713.82 496.599 706.197 498.115 698.5 498.115C690.803 498.115 683.18 496.599 676.069 493.654C668.957 490.708 662.496 486.39 657.053 480.947C651.61 475.504 647.292 469.043 644.346 461.931C641.401 454.82 639.885 447.198 639.885 439.5C639.885 423.954 646.06 409.045 657.053 398.053C668.045 387.06 682.954 380.885 698.5 380.885C714.046 380.885 728.955 387.06 739.947 398.053C750.94 409.045 757.115 423.954 757.115 439.5ZM757.115 566.5C757.115 574.198 755.599 581.82 752.654 588.931C749.708 596.043 745.39 602.504 739.947 607.947C734.504 613.39 728.043 617.708 720.931 620.654C713.82 623.599 706.197 625.115 698.5 625.115C690.803 625.115 683.18 623.599 676.069 620.654C668.957 617.708 662.496 613.39 657.053 607.947C651.61 602.504 647.292 596.043 644.346 588.931C641.401 581.82 639.885 574.198 639.885 566.5C639.885 550.954 646.06 536.045 657.053 525.053C668.045 514.06 682.954 507.885 698.5 507.885C714.046 507.885 728.955 514.06 739.947 525.053C750.94 536.045 757.115 550.954 757.115 566.5Z" fill="#00BCD4"/>
<path d="M1138.12 566.5C1138.12 574.198 1136.6 581.82 1133.65 588.931C1130.71 596.043 1126.39 602.504 1120.95 607.947C1115.5 613.39 1109.04 617.708 1101.93 620.654C1094.82 623.599 1087.2 625.115 1079.5 625.115C1071.8 625.115 1064.18 623.599 1057.07 620.654C1049.96 617.708 1043.5 613.39 1038.05 607.947C1032.61 602.504 1028.29 596.043 1025.35 588.931C1022.4 581.82 1020.88 574.198 1020.88 566.5C1020.88 550.954 1027.06 536.045 1038.05 525.053C1049.05 514.06 1063.95 507.885 1079.5 507.885C1095.05 507.885 1109.95 514.06 1120.95 525.053C1131.94 536.045 1138.12 550.954 1138.12 566.5ZM757.115 58.5C757.115 66.1975 755.599 73.8196 752.654 80.9312C749.708 88.0427 745.39 94.5044 739.947 99.9474C734.504 105.39 728.043 109.708 720.931 112.654C713.82 115.599 706.197 117.115 698.5 117.115C690.803 117.115 683.18 115.599 676.069 112.654C668.957 109.708 662.496 105.39 657.053 99.9474C651.61 94.5044 647.292 88.0427 644.346 80.9312C641.401 73.8196 639.885 66.1975 639.885 58.5C639.885 42.9543 646.06 28.0452 657.053 17.0527C668.045 6.06017 682.954 -0.115356 698.5 -0.115356C714.046 -0.115356 728.955 6.06017 739.947 17.0527C750.94 28.0452 757.115 42.9543 757.115 58.5ZM757.115 312.5C757.115 320.198 755.599 327.82 752.654 334.931C749.708 342.043 745.39 348.504 739.947 353.947C734.504 359.39 728.043 363.708 720.931 366.654C713.82 369.599 706.197 371.115 698.5 371.115C690.803 371.115 683.18 369.599 676.069 366.654C668.957 363.708 662.496 359.39 657.053 353.947C651.61 348.504 647.292 342.043 644.346 334.931C641.401 327.82 639.885 320.198 639.885 312.5C639.885 296.954 646.06 282.045 657.053 271.053C668.045 260.06 682.954 253.885 698.5 253.885C714.046 253.885 728.955 260.06 739.947 271.053C750.94 282.045 757.115 296.954 757.115 312.5ZM1011.12 439.5C1011.12 455.046 1004.94 469.955 993.947 480.947C982.955 491.94 968.046 498.115 952.5 498.115C936.954 498.115 922.045 491.94 911.053 480.947C900.06 469.955 893.885 455.046 893.885 439.5C893.885 423.954 900.06 409.045 911.053 398.053C922.045 387.06 936.954 380.885 952.5 380.885C968.046 380.885 982.955 387.06 993.947 398.053C1004.94 409.045 1011.12 423.954 1011.12 439.5ZM884.115 185.5C884.115 201.046 877.94 215.955 866.947 226.947C855.955 237.94 841.046 244.115 825.5 244.115C809.954 244.115 795.045 237.94 784.053 226.947C773.06 215.955 766.885 201.046 766.885 185.5C766.885 169.954 773.06 155.045 784.053 144.053C795.045 133.06 809.954 126.885 825.5 126.885C841.046 126.885 855.955 133.06 866.947 144.053C877.94 155.045 884.115 169.954 884.115 185.5Z" fill="#805AD5"/>
</g>
<g clip-path="url(#clip3_2_2)">
<path d="M637 630H2V1265H637V630Z" fill="#2A2A30"/>
<path d="M251.115 693.5C251.115 709.046 244.94 723.955 233.947 734.947C222.955 745.94 208.046 752.115 192.5 752.115C176.954 752.115 162.045 745.94 151.053 734.947C140.06 723.955 133.885 709.046 133.885 693.5C133.885 677.954 140.06 663.045 151.053 652.053C162.045 641.06 176.954 634.885 192.5 634.885C208.046 634.885 222.955 641.06 233.947 652.053C244.94 663.045 251.115 677.954 251.115 693.5ZM632.115 820.5C632.115 836.046 625.94 850.955 614.947 861.947C603.955 872.94 589.046 879.115 573.5 879.115C557.954 879.115 543.045 872.94 532.053 861.947C521.06 850.955 514.885 836.046 514.885 820.5C514.885 804.954 521.06 790.045 532.053 779.053C543.045 768.06 557.954 761.885 573.5 761.885C589.046 761.885 603.955 768.06 614.947 779.053C625.94 790.045 632.115 804.954 632.115 820.5ZM632.115 947.5C632.115 963.046 625.94 977.955 614.947 988.947C603.955 999.94 589.046 1006.12 573.5 1006.12C557.954 1006.12 543.045 999.94 532.053 988.947C521.06 977.955 514.885 963.046 514.885 947.5C514.885 931.954 521.06 917.045 532.053 906.053C543.045 895.06 557.954 888.885 573.5 888.885C589.046 888.885 603.955 895.06 614.947 906.053C625.94 917.045 632.115 931.954 632.115 947.5ZM251.115 947.5C251.115 963.046 244.94 977.955 233.947 988.947C222.955 999.94 208.046 1006.12 192.5 1006.12C176.954 1006.12 162.045 999.94 151.053 988.947C140.06 977.955 133.885 963.046 133.885 947.5C133.885 931.954 140.06 917.045 151.053 906.053C162.045 895.06 176.954 888.885 192.5 888.885C208.046 888.885 222.955 895.06 233.947 906.053C244.94 917.045 251.115 931.954 251.115 947.5ZM378.115 1201.5C378.115 1217.05 371.94 1231.95 360.947 1242.95C349.955 1253.94 335.046 1260.12 319.5 1260.12C303.954 1260.12 289.045 1253.94 278.053 1242.95C267.06 1231.95 260.885 1217.05 260.885 1201.5C260.885 1185.95 267.06 1171.05 278.053 1160.05C289.045 1149.06 303.954 1142.88 319.5 1142.88C335.046 1142.88 349.955 1149.06 360.947 1160.05C371.94 1171.05 378.115 1185.95 378.115 1201.5Z" fill="#ECC94B"/>
<path d="M632.115 1074.5C632.115 1090.05 625.94 1104.95 614.947 1115.95C603.955 1126.94 589.046 1133.12 573.5 1133.12C557.954 1133.12 543.045 1126.94 532.053 1115.95C521.06 1104.95 514.885 1090.05 514.885 1074.5C514.885 1058.95 521.06 1044.05 532.053 1033.05C543.045 1022.06 557.954 1015.88 573.5 1015.88C589.046 1015.88 603.955 1022.06 614.947 1033.05C625.94 1044.05 632.115 1058.95 632.115 1074.5ZM632.115 693.5C632.115 709.046 625.94 723.955 614.947 734.947C603.955 745.94 589.046 752.115 573.5 752.115C557.954 752.115 543.045 745.94 532.053 734.947C521.06 723.955 514.885 709.046 514.885 693.5C514.885 677.954 521.06 663.045 532.053 652.053C543.045 641.06 557.954 634.885 573.5 634.885C589.046 634.885 603.955 641.06 614.947 652.053C625.94 663.045 632.115 677.954 632.115 693.5ZM505.115 820.5C505.115 828.197 503.599 835.82 500.654 842.931C497.708 850.043 493.39 856.504 487.947 861.947C482.504 867.39 476.043 871.708 468.931 874.654C461.82 877.599 454.197 879.115 446.5 879.115C438.803 879.115 431.18 877.599 424.069 874.654C416.957 871.708 410.496 867.39 405.053 861.947C399.61 856.504 395.292 850.043 392.346 842.931C389.401 835.82 387.885 828.197 387.885 820.5C387.885 804.954 394.06 790.045 405.053 779.053C416.045 768.06 430.954 761.885 446.5 761.885C462.046 761.885 476.955 768.06 487.947 779.053C498.94 790.045 505.115 804.954 505.115 820.5ZM505.115 1074.5C505.115 1082.2 503.599 1089.82 500.654 1096.93C497.708 1104.04 493.39 1110.5 487.947 1115.95C482.504 1121.39 476.043 1125.71 468.931 1128.65C461.82 1131.6 454.197 1133.12 446.5 1133.12C438.803 1133.12 431.18 1131.6 424.069 1128.65C416.957 1125.71 410.496 1121.39 405.053 1115.95C399.61 1110.5 395.292 1104.04 392.346 1096.93C389.401 1089.82 387.885 1082.2 387.885 1074.5C387.885 1058.95 394.06 1044.05 405.053 1033.05C416.045 1022.06 430.954 1015.88 446.5 1015.88C462.046 1015.88 476.955 1022.06 487.947 1033.05C498.94 1044.05 505.115 1058.95 505.115 1074.5ZM251.115 1201.5C251.115 1217.05 244.94 1231.95 233.947 1242.95C222.955 1253.94 208.046 1260.12 192.5 1260.12C176.954 1260.12 162.045 1253.94 151.053 1242.95C140.06 1231.95 133.885 1217.05 133.885 1201.5C133.885 1185.95 140.06 1171.05 151.053 1160.05C162.045 1149.06 176.954 1142.88 192.5 1142.88C208.046 1142.88 222.955 1149.06 233.947 1160.05C244.94 1171.05 251.115 1185.95 251.115 1201.5Z" fill="#F44336"/>
<path d="M505.115 947.5C505.115 955.197 503.599 962.82 500.654 969.931C497.708 977.043 493.39 983.504 487.947 988.947C482.504 994.39 476.043 998.708 468.931 1001.65C461.82 1004.6 454.197 1006.12 446.5 1006.12C438.803 1006.12 431.18 1004.6 424.069 1001.65C416.957 998.708 410.496 994.39 405.053 988.947C399.61 983.504 395.292 977.043 392.346 969.931C389.401 962.82 387.885 955.197 387.885 947.5C387.885 931.954 394.06 917.045 405.053 906.053C416.045 895.06 430.954 888.885 446.5 888.885C462.046 888.885 476.955 895.06 487.947 906.053C498.94 917.045 505.115 931.954 505.115 947.5ZM378.115 820.5C378.115 836.046 371.94 850.955 360.947 861.947C349.955 872.94 335.046 879.115 319.5 879.115C303.954 879.115 289.045 872.94 278.053 861.947C267.06 850.955 260.885 836.046 260.885 820.5C260.885 804.954 267.06 790.045 278.053 779.053C289.045 768.06 303.954 761.885 319.5 761.885C335.046 761.885 349.955 768.06 360.947 779.053C371.94 790.045 378.115 804.954 378.115 820.5ZM378.115 693.5C378.115 709.046 371.94 723.955 360.947 734.947C349.955 745.94 335.046 752.115 319.5 752.115C303.954 752.115 289.045 745.94 278.053 734.947C267.06 723.955 260.885 709.046 260.885 693.5C260.885 677.954 267.06 663.045 278.053 652.053C289.045 641.06 303.954 634.885 319.5 634.885C335.046 634.885 349.955 641.06 360.947 652.053C371.94 663.045 378.115 677.954 378.115 693.5ZM124.115 1074.5C124.115 1082.2 122.599 1089.82 119.654 1096.93C116.708 1104.04 112.39 1110.5 106.947 1115.95C101.504 1121.39 95.0427 1125.71 87.9311 1128.65C80.8196 1131.6 73.1975 1133.12 65.5 1133.12C57.8025 1133.12 50.1804 1131.6 43.0689 1128.65C35.9573 1125.71 29.4956 1121.39 24.0527 1115.95C18.6097 1110.5 14.2921 1104.04 11.3464 1096.93C8.40074 1089.82 6.88461 1082.2 6.88461 1074.5C6.88461 1058.95 13.0601 1044.05 24.0527 1033.05C35.0452 1022.06 49.9542 1015.88 65.5 1015.88C81.0458 1015.88 95.9548 1022.06 106.947 1033.05C117.94 1044.05 124.115 1058.95 124.115 1074.5ZM124.115 1201.5C124.115 1209.2 122.599 1216.82 119.654 1223.93C116.708 1231.04 112.39 1237.5 106.947 1242.95C101.504 1248.39 95.0427 1252.71 87.9311 1255.65C80.8196 1258.6 73.1975 1260.12 65.5 1260.12C57.8025 1260.12 50.1804 1258.6 43.0689 1255.65C35.9573 1252.71 29.4956 1248.39 24.0527 1242.95C18.6097 1237.5 14.2921 1231.04 11.3464 1223.93C8.40074 1216.82 6.88461 1209.2 6.88461 1201.5C6.88461 1185.95 13.0601 1171.05 24.0527 1160.05C35.0452 1149.06 49.9542 1142.88 65.5 1142.88C81.0458 1142.88 95.9548 1149.06 106.947 1160.05C117.94 1171.05 124.115 1185.95 124.115 1201.5Z" fill="#00BCD4"/>
<path d="M505.115 1201.5C505.115 1209.2 503.599 1216.82 500.654 1223.93C497.708 1231.04 493.39 1237.5 487.947 1242.95C482.504 1248.39 476.043 1252.71 468.931 1255.65C461.82 1258.6 454.197 1260.12 446.5 1260.12C438.803 1260.12 431.18 1258.6 424.069 1255.65C416.957 1252.71 410.496 1248.39 405.053 1242.95C399.61 1237.5 395.292 1231.04 392.346 1223.93C389.401 1216.82 387.885 1209.2 387.885 1201.5C387.885 1185.95 394.06 1171.05 405.053 1160.05C416.045 1149.06 430.954 1142.88 446.5 1142.88C462.046 1142.88 476.955 1149.06 487.947 1160.05C498.94 1171.05 505.115 1185.95 505.115 1201.5ZM124.115 693.5C124.115 701.197 122.599 708.82 119.654 715.931C116.708 723.043 112.39 729.504 106.947 734.947C101.504 740.39 95.0427 744.708 87.9311 747.654C80.8196 750.599 73.1975 752.115 65.5 752.115C57.8025 752.115 50.1804 750.599 43.0689 747.654C35.9573 744.708 29.4956 740.39 24.0527 734.947C18.6097 729.504 14.2921 723.043 11.3464 715.931C8.40074 708.82 6.88461 701.197 6.88461 693.5C6.88461 677.954 13.0601 663.045 24.0527 652.053C35.0452 641.06 49.9542 634.885 65.5 634.885C81.0458 634.885 95.9548 641.06 106.947 652.053C117.94 663.045 124.115 677.954 124.115 693.5ZM124.115 947.5C124.115 955.197 122.599 962.82 119.654 969.931C116.708 977.043 112.39 983.504 106.947 988.947C101.504 994.39 95.0427 998.708 87.9311 1001.65C80.8196 1004.6 73.1975 1006.12 65.5 1006.12C57.8025 1006.12 50.1804 1004.6 43.0689 1001.65C35.9573 998.708 29.4956 994.39 24.0527 988.947C18.6097 983.504 14.2921 977.043 11.3464 969.931C8.40074 962.82 6.88461 955.197 6.88461 947.5C6.88461 931.954 13.0601 917.045 24.0527 906.053C35.0452 895.06 49.9542 888.885 65.5 888.885C81.0458 888.885 95.9548 895.06 106.947 906.053C117.94 917.045 124.115 931.954 124.115 947.5ZM378.115 1074.5C378.115 1090.05 371.94 1104.95 360.947 1115.95C349.955 1126.94 335.046 1133.12 319.5 1133.12C303.954 1133.12 289.045 1126.94 278.053 1115.95C267.06 1104.95 260.885 1090.05 260.885 1074.5C260.885 1058.95 267.06 1044.05 278.053 1033.05C289.045 1022.06 303.954 1015.88 319.5 1015.88C335.046 1015.88 349.955 1022.06 360.947 1033.05C371.94 1044.05 378.115 1058.95 378.115 1074.5ZM251.115 820.5C251.115 836.046 244.94 850.955 233.947 861.947C222.955 872.94 208.046 879.115 192.5 879.115C176.954 879.115 162.045 872.94 151.053 861.947C140.06 850.955 133.885 836.046 133.885 820.5C133.885 804.954 140.06 790.045 151.053 779.053C162.045 768.06 176.954 761.885 192.5 761.885C208.046 761.885 222.955 768.06 233.947 779.053C244.94 790.045 251.115 804.954 251.115 820.5Z" fill="#805AD5"/>
</g>
<g clip-path="url(#clip4_2_2)">
<path d="M1271 629H636V1264H1271V629Z" fill="#2A2A30"/>
<path d="M885.115 692.5C885.115 708.046 878.94 722.955 867.947 733.947C856.955 744.94 842.046 751.115 826.5 751.115C810.954 751.115 796.045 744.94 785.053 733.947C774.06 722.955 767.885 708.046 767.885 692.5C767.885 676.954 774.06 662.045 785.053 651.053C796.045 640.06 810.954 633.885 826.5 633.885C842.046 633.885 856.955 640.06 867.947 651.053C878.94 662.045 885.115 676.954 885.115 692.5ZM1266.12 819.5C1266.12 835.046 1259.94 849.955 1248.95 860.947C1237.95 871.94 1223.05 878.115 1207.5 878.115C1191.95 878.115 1177.05 871.94 1166.05 860.947C1155.06 849.955 1148.88 835.046 1148.88 819.5C1148.88 803.954 1155.06 789.045 1166.05 778.053C1177.05 767.06 1191.95 760.885 1207.5 760.885C1223.05 760.885 1237.95 767.06 1248.95 778.053C1259.94 789.045 1266.12 803.954 1266.12 819.5ZM1266.12 946.5C1266.12 962.046 1259.94 976.955 1248.95 987.947C1237.95 998.94 1223.05 1005.12 1207.5 1005.12C1191.95 1005.12 1177.05 998.94 1166.05 987.947C1155.06 976.955 1148.88 962.046 1148.88 946.5C1148.88 930.954 1155.06 916.045 1166.05 905.053C1177.05 894.06 1191.95 887.885 1207.5 887.885C1223.05 887.885 1237.95 894.06 1248.95 905.053C1259.94 916.045 1266.12 930.954 1266.12 946.5ZM885.115 946.5C885.115 962.046 878.94 976.955 867.947 987.947C856.955 998.94 842.046 1005.12 826.5 1005.12C810.954 1005.12 796.045 998.94 785.053 987.947C774.06 976.955 767.885 962.046 767.885 946.5C767.885 930.954 774.06 916.045 785.053 905.053C796.045 894.06 810.954 887.885 826.5 887.885C842.046 887.885 856.955 894.06 867.947 905.053C878.94 916.045 885.115 930.954 885.115 946.5ZM1012.12 1200.5C1012.12 1216.05 1005.94 1230.95 994.947 1241.95C983.955 1252.94 969.046 1259.12 953.5 1259.12C937.954 1259.12 923.045 1252.94 912.053 1241.95C901.06 1230.95 894.885 1216.05 894.885 1200.5C894.885 1184.95 901.06 1170.05 912.053 1159.05C923.045 1148.06 937.954 1141.88 953.5 1141.88C969.046 1141.88 983.955 1148.06 994.947 1159.05C1005.94 1170.05 1012.12 1184.95 1012.12 1200.5Z" fill="#ECC94B"/>
<path d="M1266.12 1073.5C1266.12 1089.05 1259.94 1103.95 1248.95 1114.95C1237.95 1125.94 1223.05 1132.12 1207.5 1132.12C1191.95 1132.12 1177.05 1125.94 1166.05 1114.95C1155.06 1103.95 1148.88 1089.05 1148.88 1073.5C1148.88 1057.95 1155.06 1043.05 1166.05 1032.05C1177.05 1021.06 1191.95 1014.88 1207.5 1014.88C1223.05 1014.88 1237.95 1021.06 1248.95 1032.05C1259.94 1043.05 1266.12 1057.95 1266.12 1073.5ZM1266.12 692.5C1266.12 708.046 1259.94 722.955 1248.95 733.947C1237.95 744.94 1223.05 751.115 1207.5 751.115C1191.95 751.115 1177.05 744.94 1166.05 733.947C1155.06 722.955 1148.88 708.046 1148.88 692.5C1148.88 676.954 1155.06 662.045 1166.05 651.053C1177.05 640.06 1191.95 633.885 1207.5 633.885C1223.05 633.885 1237.95 640.06 1248.95 651.053C1259.94 662.045 1266.12 676.954 1266.12 692.5ZM1139.12 819.5C1139.12 827.197 1137.6 834.82 1134.65 841.931C1131.71 849.043 1127.39 855.504 1121.95 860.947C1116.5 866.39 1110.04 870.708 1102.93 873.654C1095.82 876.599 1088.2 878.115 1080.5 878.115C1072.8 878.115 1065.18 876.599 1058.07 873.654C1050.96 870.708 1044.5 866.39 1039.05 860.947C1033.61 855.504 1029.29 849.043 1026.35 841.931C1023.4 834.82 1021.88 827.197 1021.88 819.5C1021.88 803.954 1028.06 789.045 1039.05 778.053C1050.05 767.06 1064.95 760.885 1080.5 760.885C1096.05 760.885 1110.95 767.06 1121.95 778.053C1132.94 789.045 1139.12 803.954 1139.12 819.5ZM1139.12 1073.5C1139.12 1081.2 1137.6 1088.82 1134.65 1095.93C1131.71 1103.04 1127.39 1109.5 1121.95 1114.95C1116.5 1120.39 1110.04 1124.71 1102.93 1127.65C1095.82 1130.6 1088.2 1132.12 1080.5 1132.12C1072.8 1132.12 1065.18 1130.6 1058.07 1127.65C1050.96 1124.71 1044.5 1120.39 1039.05 1114.95C1033.61 1109.5 1029.29 1103.04 1026.35 1095.93C1023.4 1088.82 1021.88 1081.2 1021.88 1073.5C1021.88 1057.95 1028.06 1043.05 1039.05 1032.05C1050.05 1021.06 1064.95 1014.88 1080.5 1014.88C1096.05 1014.88 1110.95 1021.06 1121.95 1032.05C1132.94 1043.05 1139.12 1057.95 1139.12 1073.5ZM885.115 1200.5C885.115 1216.05 878.94 1230.95 867.947 1241.95C856.955 1252.94 842.046 1259.12 826.5 1259.12C810.954 1259.12 796.045 1252.94 785.053 1241.95C774.06 1230.95 767.885 1216.05 767.885 1200.5C767.885 1184.95 774.06 1170.05 785.053 1159.05C796.045 1148.06 810.954 1141.88 826.5 1141.88C842.046 1141.88 856.955 1148.06 867.947 1159.05C878.94 1170.05 885.115 1184.95 885.115 1200.5Z" fill="#F44336"/>
<path d="M1139.12 946.5C1139.12 954.197 1137.6 961.82 1134.65 968.931C1131.71 976.043 1127.39 982.504 1121.95 987.947C1116.5 993.39 1110.04 997.708 1102.93 1000.65C1095.82 1003.6 1088.2 1005.12 1080.5 1005.12C1072.8 1005.12 1065.18 1003.6 1058.07 1000.65C1050.96 997.708 1044.5 993.39 1039.05 987.947C1033.61 982.504 1029.29 976.043 1026.35 968.931C1023.4 961.82 1021.88 954.197 1021.88 946.5C1021.88 930.954 1028.06 916.045 1039.05 905.053C1050.05 894.06 1064.95 887.885 1080.5 887.885C1096.05 887.885 1110.95 894.06 1121.95 905.053C1132.94 916.045 1139.12 930.954 1139.12 946.5ZM1012.12 819.5C1012.12 835.046 1005.94 849.955 994.947 860.947C983.955 871.94 969.046 878.115 953.5 878.115C937.954 878.115 923.045 871.94 912.053 860.947C901.06 849.955 894.885 835.046 894.885 819.5C894.885 803.954 901.06 789.045 912.053 778.053C923.045 767.06 937.954 760.885 953.5 760.885C969.046 760.885 983.955 767.06 994.947 778.053C1005.94 789.045 1012.12 803.954 1012.12 819.5ZM1012.12 692.5C1012.12 708.046 1005.94 722.955 994.947 733.947C983.955 744.94 969.046 751.115 953.5 751.115C937.954 751.115 923.045 744.94 912.053 733.947C901.06 722.955 894.885 708.046 894.885 692.5C894.885 676.954 901.06 662.045 912.053 651.053C923.045 640.06 937.954 633.885 953.5 633.885C969.046 633.885 983.955 640.06 994.947 651.053C1005.94 662.045 1012.12 676.954 1012.12 692.5ZM758.115 1073.5C758.115 1081.2 756.599 1088.82 753.654 1095.93C750.708 1103.04 746.39 1109.5 740.947 1114.95C735.504 1120.39 729.043 1124.71 721.931 1127.65C714.82 1130.6 707.197 1132.12 699.5 1132.12C691.803 1132.12 684.18 1130.6 677.069 1127.65C669.957 1124.71 663.496 1120.39 658.053 1114.95C652.61 1109.5 648.292 1103.04 645.346 1095.93C642.401 1088.82 640.885 1081.2 640.885 1073.5C640.885 1057.95 647.06 1043.05 658.053 1032.05C669.045 1021.06 683.954 1014.88 699.5 1014.88C715.046 1014.88 729.955 1021.06 740.947 1032.05C751.94 1043.05 758.115 1057.95 758.115 1073.5ZM758.115 1200.5C758.115 1208.2 756.599 1215.82 753.654 1222.93C750.708 1230.04 746.39 1236.5 740.947 1241.95C735.504 1247.39 729.043 1251.71 721.931 1254.65C714.82 1257.6 707.197 1259.12 699.5 1259.12C691.803 1259.12 684.18 1257.6 677.069 1254.65C669.957 1251.71 663.496 1247.39 658.053 1241.95C652.61 1236.5 648.292 1230.04 645.346 1222.93C642.401 1215.82 640.885 1208.2 640.885 1200.5C640.885 1184.95 647.06 1170.05 658.053 1159.05C669.045 1148.06 683.954 1141.88 699.5 1141.88C715.046 1141.88 729.955 1148.06 740.947 1159.05C751.94 1170.05 758.115 1184.95 758.115 1200.5Z" fill="#00BCD4"/>
<path d="M1139.12 1200.5C1139.12 1208.2 1137.6 1215.82 1134.65 1222.93C1131.71 1230.04 1127.39 1236.5 1121.95 1241.95C1116.5 1247.39 1110.04 1251.71 1102.93 1254.65C1095.82 1257.6 1088.2 1259.12 1080.5 1259.12C1072.8 1259.12 1065.18 1257.6 1058.07 1254.65C1050.96 1251.71 1044.5 1247.39 1039.05 1241.95C1033.61 1236.5 1029.29 1230.04 1026.35 1222.93C1023.4 1215.82 1021.88 1208.2 1021.88 1200.5C1021.88 1184.95 1028.06 1170.05 1039.05 1159.05C1050.05 1148.06 1064.95 1141.88 1080.5 1141.88C1096.05 1141.88 1110.95 1148.06 1121.95 1159.05C1132.94 1170.05 1139.12 1184.95 1139.12 1200.5ZM758.115 692.5C758.115 700.197 756.599 707.82 753.654 714.931C750.708 722.043 746.39 728.504 740.947 733.947C735.504 739.39 729.043 743.708 721.931 746.654C714.82 749.599 707.197 751.115 699.5 751.115C691.803 751.115 684.18 749.599 677.069 746.654C669.957 743.708 663.496 739.39 658.053 733.947C652.61 728.504 648.292 722.043 645.346 714.931C642.401 707.82 640.885 700.197 640.885 692.5C640.885 676.954 647.06 662.045 658.053 651.053C669.045 640.06 683.954 633.885 699.5 633.885C715.046 633.885 729.955 640.06 740.947 651.053C751.94 662.045 758.115 676.954 758.115 692.5ZM758.115 946.5C758.115 954.197 756.599 961.82 753.654 968.931C750.708 976.043 746.39 982.504 740.947 987.947C735.504 993.39 729.043 997.708 721.931 1000.65C714.82 1003.6 707.197 1005.12 699.5 1005.12C691.803 1005.12 684.18 1003.6 677.069 1000.65C669.957 997.708 663.496 993.39 658.053 987.947C652.61 982.504 648.292 976.043 645.346 968.931C642.401 961.82 640.885 954.197 640.885 946.5C640.885 930.954 647.06 916.045 658.053 905.053C669.045 894.06 683.954 887.885 699.5 887.885C715.046 887.885 729.955 894.06 740.947 905.053C751.94 916.045 758.115 930.954 758.115 946.5ZM1012.12 1073.5C1012.12 1089.05 1005.94 1103.95 994.947 1114.95C983.955 1125.94 969.046 1132.12 953.5 1132.12C937.954 1132.12 923.045 1125.94 912.053 1114.95C901.06 1103.95 894.885 1089.05 894.885 1073.5C894.885 1057.95 901.06 1043.05 912.053 1032.05C923.045 1021.06 937.954 1014.88 953.5 1014.88C969.046 1014.88 983.955 1021.06 994.947 1032.05C1005.94 1043.05 1012.12 1057.95 1012.12 1073.5ZM885.115 819.5C885.115 835.046 878.94 849.955 867.947 860.947C856.955 871.94 842.046 878.115 826.5 878.115C810.954 878.115 796.045 871.94 785.053 860.947C774.06 849.955 767.885 835.046 767.885 819.5C767.885 803.954 774.06 789.045 785.053 778.053C796.045 767.06 810.954 760.885 826.5 760.885C842.046 760.885 856.955 767.06 867.947 778.053C878.94 789.045 885.115 803.954 885.115 819.5Z" fill="#805AD5"/>
</g>
<path d="M436.3 804.6C395 804.6 359.067 794.333 328.5 773.8C297.933 753.267 274.133 723.517 257.1 684.55C240.3 645.583 231.9 598.567 231.9 543.5C231.9 495.2 241.117 452.5 259.55 415.4C277.983 378.067 303.417 348.783 335.85 327.55C368.517 306.317 405.967 295.7 448.2 295.7C479 295.7 503.617 298.15 522.05 303.05C540.717 307.717 555.183 313.433 565.45 320.2C575.95 326.967 584.233 333.267 590.3 339.1L551.8 416.8C548.3 412.133 542.817 406.767 535.35 400.7C527.883 394.633 517.267 389.383 503.5 384.95C489.733 380.517 471.767 378.3 449.6 378.3C426.033 378.3 404.917 385.183 386.25 398.95C367.583 412.717 352.767 431.85 341.8 456.35C331.067 480.85 325.7 509.2 325.7 541.4C325.7 599.733 335.967 645.117 356.5 677.55C377.033 709.983 404.1 726.2 437.7 726.2C473.867 726.2 499.417 717.683 514.35 700.65C529.517 683.383 537.1 658.533 537.1 626.1C537.1 620.5 536.867 614.2 536.4 607.2H436.3V530.2H619C620.167 540.933 621.1 552.483 621.8 564.85C622.733 577.217 623.2 588.3 623.2 598.1C623.2 624.467 620.633 650.017 615.5 674.75C610.367 699.483 601.033 721.65 587.5 741.25C573.967 760.617 554.95 776.017 530.45 787.45C506.183 798.883 474.8 804.6 436.3 804.6ZM871.602 800.4C846.168 800.4 821.668 795.267 798.102 785C774.535 774.5 753.302 758.75 734.402 737.75C715.735 716.517 700.918 689.567 689.952 656.9C678.985 624.233 673.502 585.733 673.502 541.4C673.502 488.2 682.718 443.4 701.152 407C719.818 370.367 744.668 342.717 775.702 324.05C806.968 305.15 841.502 295.7 879.302 295.7C904.968 295.7 925.852 298.15 941.952 303.05C958.285 307.95 971.235 313.783 980.802 320.55C990.602 327.317 998.535 333.5 1004.6 339.1L965.402 412.6C955.368 401.633 944.985 392.883 934.252 386.35C923.518 379.583 906.368 376.2 882.802 376.2C859.002 376.2 838.702 383.083 821.902 396.85C805.335 410.617 792.618 429.633 783.752 453.9C775.118 477.933 770.802 505.467 770.802 536.5C770.802 597.4 780.952 643.367 801.252 674.4C821.785 705.2 846.402 720.6 875.102 720.6C897.268 720.6 916.168 717.45 931.802 711.15C947.435 704.85 959.102 697.733 966.802 689.8L1005.3 759.1C998.768 764.467 990.018 770.417 979.052 776.95C968.318 783.25 954.202 788.733 936.702 793.4C919.435 798.067 897.735 800.4 871.602 800.4Z" fill="white"/>
<rect x="-108" width="749" height="1089" fill="black" fill-opacity="0.55"/>
</g>
<defs>
<clipPath id="clip0_2_2">
<rect width="1275" height="1080" fill="white"/>
</clipPath>
<clipPath id="clip1_2_2">
<rect width="635" height="635" fill="white" transform="translate(0 -5)"/>
</clipPath>
<clipPath id="clip2_2_2">
<rect width="635" height="635" fill="white" transform="translate(635 -5)"/>
</clipPath>
<clipPath id="clip3_2_2">
<rect width="635" height="635" fill="white" transform="translate(2 630)"/>
</clipPath>
<clipPath id="clip4_2_2">
<rect width="635" height="635" fill="white" transform="translate(636 629)"/>
</clipPath>
</defs>
</svg>
