<?xml version="1.0" encoding="utf-8"?>
<!-- Generator: Adobe Illustrator 25.2.1, SVG Export Plug-In . SVG Version: 6.00 Build 0)  -->
<svg version="1.1" id="Layer_19" xmlns="http://www.w3.org/2000/svg" xmlns:xlink="http://www.w3.org/1999/xlink" x="0px" y="0px"
	 viewBox="0 0 527.9 355.44" style="enable-background:new 0 0 527.9 355.44;" xml:space="preserve">
<style type="text/css">
	.st0{fill:#FED46B;}
	.st1{fill:#A35E54;}
	.st2{fill:#A7A736;}
	.st3{fill:#748F43;}
	.st4{fill:#6C874C;}
	.st5{fill:#B4B635;}
	.st6{fill:#A7A637;}
	.st7{fill:#4C6E4E;}
	.st8{fill:#5D2734;}
	.st9{fill:#582431;}
	.st10{fill:#B1928C;}
	.st11{fill:#D4C6BD;}
	.st12{fill:#C2BC30;}
	.st13{fill:#A6A637;}
	.st14{fill:#7B843F;}
	.st15{fill:#989836;}
	.st16{fill:#485949;}
	.st17{fill:#794648;}
	.st18{fill:#7B4749;}
	.st19{fill:#56682E;}
	.st20{fill:#DD5E28;}
	.st21{fill:#CE3F29;}
	.st22{fill:#642130;}
	.st23{fill:#F99827;}
	.st24{fill:#EA7527;}
	.st25{fill:#5B2733;}
	.st26{fill:#5F2936;}
	.st27{fill:#3B8DA3;}
	.st28{fill:#146B89;}
	.st29{fill:#42A2B8;}
	.st30{fill:#841C12;}
	.st31{fill:#CE7F5F;}
	.st32{fill:#9E9D9B;}
	.st33{fill:#FFFFFF;}
	.st34{fill:#46A4B7;}
	.st35{fill:#EB6254;}
	.st36{fill:#F99B61;}
	.st37{fill:#DA4632;}
	.st38{fill:#EE835A;}
	.st39{fill:#F79B62;}
	.st40{fill:#7A1522;}
	.st41{fill:#EFE6DF;}
	.st42{fill:#824D31;}
	.st43{fill:#E45745;}
	.st44{fill:#CD4130;}
	.st45{fill:#DE4F3F;}
	.st46{fill:#541122;}
	.st47{fill:#5A2733;}
	.st48{fill:#794748;}
	.st49{fill:#72373A;}
	.st50{fill:#526F75;}
	.st51{fill:#5B2432;}
	.st52{fill:#E6EBD4;}
	.st53{fill:#D38360;}
	.st54{fill:#D67825;}
	.st55{fill:#945533;}
	.st56{fill:#EC9C22;}
	.st57{fill:#543152;}
	.st58{fill:#B1928D;}
	.st59{fill:#957B7E;}
	.st60{fill:#EE8258;}
	.st61{fill:#A15C33;}
	.st62{fill:#CB7B49;}
</style>
<g>
	<ellipse class="st0" cx="262.8" cy="311.17" rx="182.88" ry="23.16"/>
	<ellipse class="st1" cx="201.45" cy="316.96" rx="77.85" ry="4.28"/>
	<ellipse class="st1" cx="337.42" cy="313.13" rx="66.31" ry="2.14"/>
	<g>
		<path class="st2" d="M53.49,261.32c-5.46,3.45,2.18,12.47,7.8,13.4C66.55,275.59,59.77,257.35,53.49,261.32z"/>
	</g>
	<g>
		<path class="st2" d="M73.94,266.73c-4.03-3.54-11.38,3.89-9.39,13.8C65.33,284.4,77.55,269.9,73.94,266.73z"/>
	</g>
	<g>
		<path class="st2" d="M72.95,294.89c0,0,1.43-12.79,6.71-13.71C84.93,280.27,82.24,290.45,72.95,294.89"/>
	</g>
	<g>
		<path class="st2" d="M81.14,307.73c0,0,2.13-12.94,8.24-14c6.1-1.06,4.36,6.84,0,10.31S81.14,307.73,81.14,307.73"/>
	</g>
	<g>
		<path class="st2" d="M56.28,292.66c-1.77,5.89,16.67,2.23,16.67,2.23S58.74,284.49,56.28,292.66z"/>
	</g>
	<g>
		<path class="st2" d="M63.75,280.71c0,0-16.88,5.45-16.17-0.7S57.86,275.17,63.75,280.71z"/>
	</g>
	<g>
		<path class="st2" d="M79.92,307.08c0,0-16.52-5.45-17.84-0.97c-1.32,4.48,4.08,6.59,10.87,4.75
			C79.74,309.01,79.92,307.08,79.92,307.08z"/>
	</g>
	<g>
		<path class="st3" d="M122.53,240.8c-12.2,5.46-15.34,11.26-8.61,30.9s9.75,35.36,4.6,38.44c-5.16,3.08,8.69,7.4,11.46-15.27
			c2.77-22.67-5.19-27.57-2.59-36.33C129.98,249.79,122.53,240.8,122.53,240.8z"/>
	</g>
	<g>
		<path class="st4" d="M98.32,316.96c-6.18,0-12.71-1.87-17.09-8.21c-10.41-15.05-24-40.4-24.13-40.65l0.88-0.47
			c0.14,0.25,13.69,25.55,24.07,40.55c10.15,14.68,32.63,4.12,32.86,4.02l0.43,0.9C115.2,313.16,107.12,316.96,98.32,316.96z"/>
	</g>
	<g>
		<path class="st5" d="M118.75,311.96l-0.47-0.88c3.78-2.03,6.16-7,6.68-13.97c0.47-6.26-0.61-13.47-2.9-19.26
			c-4.52-11.43-3.41-25.23-3.4-25.37l1,0.08c-0.01,0.14-1.1,13.7,3.33,24.92C127.38,288.57,127.89,307.06,118.75,311.96z"/>
	</g>
	<g>
		<path class="st6" d="M494.59,239.69c-10.21-2.25-18.63-3.83-22.25,8.25S510,243.08,494.59,239.69z"/>
	</g>
	<g>
		<path class="st3" d="M397.09,313.13l-0.89-0.45c0.2-0.41,21.14-40.97,86.16-66.23l0.36,0.93
			C418.05,272.51,397.29,312.73,397.09,313.13z"/>
	</g>
	<g>
		<path class="st6" d="M460.15,237.88c-8.89,1.78-16.6,14.82-9.09,21.54C458.57,266.14,460.15,237.88,460.15,237.88z"/>
	</g>
	<g>
		<path class="st6" d="M437.49,253.16c0,0-12.45,1.96-12.65,10.5c-0.2,8.54,4.35,13.09,4.35,13.09S443.22,259.41,437.49,253.16z"/>
	</g>
	<g>
		<path class="st6" d="M409.21,295.63c0,0-6.35-18.28,0-26.58c6.35-8.3,11.7-2.57,9.72,4.74
			C416.94,281.1,409.21,295.63,409.21,295.63z"/>
	</g>
	<g>
		<path class="st6" d="M456.13,272.24c0.75-5.64-26.93,3.36-26.93,3.36S454,288.12,456.13,272.24z"/>
	</g>
	<g>
		<path class="st6" d="M477.01,263.35c-4.34,7.9-22.92-4.7-22.92-4.7S483.33,251.84,477.01,263.35z"/>
	</g>
	<g>
		<path class="st6" d="M409.21,295.63c0,0,19.79-10.97,24.93-5.44s5.53,9.26,0,9.37S409.21,295.63,409.21,295.63z"/>
	</g>
	<g>
		<path class="st3" d="M358.08,310.46c0,0-19.73-17.44-6.66-42.34c13.07-24.9,26.61-77.27,16.4-87.92
			c-10.21-10.66-19.76,2.5-17.45,10.41s6.33,41.05-3.42,58.56s-19.3,44.51,3.42,60.98L358.08,310.46z"/>
	</g>
	<g>
		<path class="st7" d="M48.37,187.38c-19.9,7.88-5.04,25.27,4.79,34.52s35.51,26.25,35.26,39.41c-0.25,13.16-9.29,49.18,30.74,52.7
			c0,0,2.58-22.42-6.27-31.23s-11.62-18.39-12-28.21C100.51,244.76,83.88,173.33,48.37,187.38z"/>
	</g>
	<g>
		<path class="st6" d="M352.5,309.59c-17.32-21.03-10.58-37.01-1.26-59.13c1.52-3.6,3.09-7.33,4.64-11.27
			c10.78-27.48,4.13-46.32,4.06-46.51l0.94-0.34c0.07,0.19,6.86,19.36-4.07,47.22c-1.55,3.96-3.12,7.69-4.65,11.3
			c-9.19,21.8-15.82,37.55,1.11,58.11L352.5,309.59z"/>
	</g>
	<g>
		<path class="st4" d="M118.87,314.43c-19.17-13.92-20-22.06-21.67-38.28c-0.48-4.67-1.02-9.97-2.07-16.32
			c-4.68-28.33-30.65-52.14-30.91-52.38l0.67-0.74c0.26,0.24,26.49,24.28,31.23,52.96c1.06,6.38,1.6,11.7,2.08,16.38
			c1.68,16.42,2.45,23.91,21.26,37.57L118.87,314.43z"/>
	</g>
	<g>
		<path class="st3" d="M362.02,311.92c0,0-3.75-65.79,23.12-86.54s22.33,12.09,39.91-14.31c17.58-26.4,18.77-46.94,27.86-43.98
			c9.09,2.96,24.5,50.98-16.79,68.76c-10.67,4.94-18.77-0.2-26.28,17.19s-39.52,42.68-39.91,58.88H362.02z"/>
	</g>
	<g>
		<path class="st6" d="M365.67,310.25l-0.98-0.21c0.55-2.49,13.63-61.16,28.35-71.62c7.43-5.29,11.46-4.86,15.72-4.4
			c4.16,0.44,8.46,0.9,16.6-4.5c7.31-4.84,15.26-13.94,21.79-24.95c5.83-9.83,9.45-19.38,9.2-24.33l1-0.05
			c0.51,10.43-14.83,39.16-31.44,50.17c-8.44,5.6-12.92,5.12-17.26,4.66c-4.07-0.43-7.92-0.84-15.04,4.22
			C379.22,249.47,365.8,309.65,365.67,310.25z"/>
	</g>
	<g>
		<polygon class="st6" points="458.61,212.67 443,211.77 439.17,190.7 440.16,190.52 443.84,210.82 458.66,211.67 		"/>
	</g>
	<g>
		
			<rect x="412.39" y="223.29" transform="matrix(0.3771 -0.9262 0.9262 0.3771 56.1382 531.0489)" class="st6" width="20.97" height="1"/>
	</g>
	<g>
		
			<rect x="425.51" y="227.85" transform="matrix(0.9877 -0.1562 0.1562 0.9877 -30.3148 70.8286)" class="st6" width="20.2" height="1"/>
	</g>
	<g>
		
			<rect x="390.61" y="226.37" transform="matrix(0.9384 -0.3457 0.3457 0.9384 -56.3607 149.5479)" class="st6" width="1" height="12.85"/>
	</g>
	<g>
		
			<rect x="380.99" y="248.67" transform="matrix(0.918 -0.3965 0.3965 0.918 -66.2849 177.6985)" class="st6" width="31.32" height="1"/>
	</g>
	<g>
		
			<rect x="370.29" y="269.24" transform="matrix(0.8161 -0.5779 0.5779 0.8161 -84.8049 272.9764)" class="st6" width="32.45" height="1"/>
	</g>
	<g>
		
			<rect x="374.96" y="249.99" transform="matrix(0.9669 -0.255 0.255 0.9669 -53.5229 104.3021)" class="st6" width="1" height="17.12"/>
	</g>
	<g>
		<path class="st8" d="M125.78,217.66l-0.5-1.94c0.16-0.04,4.03-1.01,11.5-1.01c6.8,0,9.43-4.12,9.45-4.16l1.7,1.05
			c-0.13,0.21-3.25,5.1-11.15,5.1C129.6,216.71,125.82,217.65,125.78,217.66z"/>
	</g>
	<g>
		<path class="st9" d="M118.84,223.94c-4.13,0-7.49-3.25-7.49-7.25s3.36-7.25,7.49-7.25s7.49,3.25,7.49,7.25
			S122.97,223.94,118.84,223.94z M118.84,211.04c-3.25,0-5.89,2.54-5.89,5.65c0,3.12,2.64,5.65,5.89,5.65s5.89-2.54,5.89-5.65
			C124.73,213.57,122.09,211.04,118.84,211.04z"/>
	</g>
	<g>
		<path class="st10" d="M123.88,228.89c-2.25,2.37-6.53,4.96-6.53,4.96s-3.09,1.8-4.37,0l-12.09-15.1c0,0,1.48-3.21,4.43-5.91
			c1.4-1.29,3.14-2.46,5.21-3.11c1.19-0.39,2.48-0.6,3.89-0.56l10.7,13.97C125.12,223.14,126.14,226.52,123.88,228.89z"/>
	</g>
	<g>
		<path class="st9" d="M123.88,228.89c-2.25,2.37-6.53,4.96-6.53,4.96s-3.09,1.8-4.37,0c0,0,0.76-7.78,12.14-10.71
			C125.12,223.14,126.14,226.52,123.88,228.89z"/>
	</g>
	<g>
		<path class="st11" d="M122.53,223.95c-1.63-0.03-5.63,3.29-5.63,3.29l-11.58-14.4c1.4-1.29,3.14-2.46,5.21-3.11L122.53,223.95z"/>
	</g>
	<g>
		<path class="st12" d="M207.71,132.15c0.29,13.48-21.71,48.96-34.34,68.18c-5.07,7.72-8.63,12.82-8.63,12.82s-23.36,2.76-32.98-3.8
			c-0.97-0.66-1.8-1.41-2.45-2.27c-7.13-9.41-25.46-42.29-10.79-49.17l-4.08-1.58c0,0,1.05-9.38,3.81-11.01
			c0.21-0.13,0.44-0.21,0.67-0.24l-5.09-2.11l4.89-7.59c0,0,0.29-16.94,5.38-25.8c0.95-1.66,2.07-3.03,3.38-3.96l-7.41-6.9
			l-1.55-1.45c0,0,5.09-16.9,36.25-17.31C185.92,79.55,207.31,113.26,207.71,132.15z"/>
	</g>
	<g>
		<path class="st13" d="M160.35,134.42c0,0.23-0.03,12.22-6.2,12.42c-6.23,0.21-35.23-1.76-35.23-1.76l-5.09-2.11l4.89-7.59
			c0,0,0.91-4.59,6.8-5.13C131.42,129.7,160.35,134.42,160.35,134.42z"/>
	</g>
	<g>
		<path class="st3" d="M154.15,146.84l-2.81,17.17l-32.82-6.1l-4.08-1.58c0,0,1.05-9.38,3.81-11.01l0.67-0.24L154.15,146.84z"/>
	</g>
	<g>
		<path class="st14" d="M160.35,99.34c0,0-18.16-12.81-32.87,6.28l-7.41-6.9C120.07,98.72,151.11,68.19,160.35,99.34z"/>
	</g>
	<g>
		<path class="st15" d="M207.71,132.15c0.29,13.48-21.71,48.96-34.34,68.18l-7.94-8.09h-3.54l1.76-28.23c0,0,0.75-26.4,0.89-40.94
			c0.15-14.53-4.19-23.73-4.19-23.73c-9.53-30.85-40.28-0.62-40.28-0.62l-1.55-1.45c0,0,5.09-16.9,36.25-17.31
			C185.92,79.55,207.31,113.26,207.71,132.15z"/>
	</g>
	<g>
		<path class="st3" d="M152.92,164.46c0,0-23.36-1.87-29.76-2.94c-6.41-1.07-8.39-3.26-10.04,2.94
			c-1.77,6.65,6.95,40.81,17.78,46.62c2.24,1.2,29.97,4.11,35.31,3.78C171.55,214.53,152.92,164.46,152.92,164.46z"/>
	</g>
	<g>
		<path class="st16" d="M173.37,200.33c-5.07,7.72-5.33,14.55-5.33,14.55s-31,2.13-39.07-5.15c0,0,30.15,1.6,31.38-13.67
			C161.02,187.79,167.53,193.42,173.37,200.33z"/>
	</g>
	<g>
		<path class="st17" d="M185.95,29.92l9.6,7.12c0,0-11.42,6.58-6.67,18.2c4.74,11.62-8.9-3.36-8.9-3.36S179.46,32.59,185.95,29.92z"
			/>
	</g>
	<g>
		<path class="st18" d="M184.86,120.45l-2.67-21.78l13.54,4.19c0,0,0.55,16.28,2.33,18.35C199.85,123.3,184.86,120.45,184.86,120.45
			z"/>
	</g>
	<g>
		<polygon class="st19" points="164.68,119.73 205.84,121.27 206.63,124.71 164.73,122.22 		"/>
	</g>
	<g>
		<path class="st20" d="M217.2,95.48c-1.68,3.08-4.39,4.97-7.61,6.04c-6.99,2.34-16.35,0.82-22.65-0.7
			c-9.19-2.21-30.09-12.52-30.09-12.52l4.81-7.55l19.35-30.36c0,0,18.99,8.9,20.47,9.49c1.48,0.6,13.94,0,13.94,0
			C223.43,75.76,222.54,85.69,217.2,95.48z"/>
	</g>
	<g>
		<path class="st21" d="M209.59,101.52c-6.99,2.34-16.35,0.82-22.65-0.7c-9.19-2.21-30.09-12.52-30.09-12.52l4.81-7.55
			c1.77,3.95,5.96,8.43,15.81,7.93C192.74,87.9,205.07,91.83,209.59,101.52z"/>
	</g>
	<g>
		<path class="st22" d="M187.53,53.35c0,0,6.08,8.01,7.27,13.94c1.19,5.93,3.99,22.32-12.47,32.11c0,0,8.61,3.31,14.09,3.07
			c0,0,12.63-14.71,9.51-27.91S204.01,59.23,187.53,53.35z"/>
	</g>
	<g>
		<path class="st23" d="M181.01,50.39c-20-8.9-30.41,3.26-33.38,11.72c-2.97,8.46,0.36,27.29,12.71,26.55
			c12.35-0.74,24.52-13.7,25.41-20.87S184.35,51.87,181.01,50.39z"/>
	</g>
	<g>
		<path class="st24" d="M157.28,85.19c-5.07-5.45-7.14-12.13-5.83-18.79c1.32-6.73,6-12.84,11.92-15.58
			c5.67-2.62,9.71-1.49,12.1-0.08c3.63,2.15,6.02,6.48,6.38,11.6c0.64,9.12-9.1,16.73-18.6,18.12c-2.79,0.41-4.94-0.61-6.24-2.94
			c-2.7-4.86-0.88-14.26,1.12-16.64c1.68-1.99,6.77-6.12,10.98-5.41c1.35,0.23,3.17,1.08,4.22,3.84c1.8,4.75-0.63,9.91-3.97,12.54
			c-2.14,1.68-4.32,2.07-5.83,1.04c-3.94-2.69,0.66-10.29,1.2-11.15l1.69,1.06c-1.38,2.2-3.63,7.16-1.77,8.43
			c0.73,0.5,2.1,0.13,3.47-0.96c2.77-2.18,4.8-6.4,3.34-10.26c-0.58-1.52-1.46-2.36-2.68-2.57c-2.99-0.5-7.46,2.76-9.12,4.73
			c-1.46,1.73-3.2,10.27-0.9,14.38c0.88,1.59,2.26,2.22,4.2,1.93c10.67-1.56,17.35-9.53,16.89-16c-0.31-4.46-2.33-8.2-5.4-10.02
			c-2.83-1.68-6.38-1.62-10.24,0.17c-5.36,2.48-9.6,8.03-10.8,14.15c-0.84,4.26-0.59,10.67,5.33,17.04L157.28,85.19z"/>
	</g>
	<g>
		<path class="st25" d="M243.59,301.4c0,0,6.58,8.72,6.58,12.09c0,3.37-0.55,7.44,5.01,5.56s17.07-9.39,17.07-9.39
			s-8.06-0.81-11.19,0.81s-8.85-8.4-8.85-8.4L243.59,301.4z"/>
	</g>
	<g>
		<path class="st26" d="M138.74,290.9c0,0-3.9,5.75-6.49,7.91s-6.24,4.39-4.33,7.05c1.92,2.66,16.88,11.31,16.88,11.31
			s1.3-1.55-4.64-6.62s3.03-12.92,3.03-12.92L138.74,290.9z"/>
	</g>
	<g>
		<path class="st27" d="M204.92,247.01c0,0-1.99,7.26-5.51,14.31c-1.82,3.64-4.06,7.22-6.64,9.72
			c-7.58,7.32-40.75,41.93-53.16,26.39c-5.82-7.3-0.65-13.85,6.01-20.77c5.83-6.06,36.72-18.95,34.73-41.45
			c-0.29-3.19-1.23-6.56-2.99-10.14L204.92,247.01z"/>
	</g>
	<g>
		<path class="st28" d="M199.41,261.32c0-0.01,0-0.01,0-0.02c-1.91-11.55-12.65-21.24-19.06-26.09c-0.29-3.19-1.23-6.56-2.99-10.14
			l27.56,21.94C204.92,247.01,202.93,254.27,199.41,261.32z"/>
	</g>
	<g>
		<path class="st29" d="M252.59,303.69c-37.22,0.14-47.02-52.63-47.02-52.63s-4.96-4.97-27.3-22.93
			c-22.33-17.97-16.06-35.06-16.06-35.06c-1.1-8.77,25.99-16.02,39.61-15.06c4.24,0.29,7.17,1.38,7.55,3.47
			c1.46,8.11,0.84,32.07,0.73,35.65c0.09-0.01,0.28,0.07,0.62,0.34c0.56,0.42,1.54,1.35,3.21,3.16c4.83,5.22,19.07,25.6,21.55,35.7
			c2.48,10.1,18.94,25.03,22.47,35.48C261.47,302.26,252.59,303.69,252.59,303.69z"/>
	</g>
	<g>
		<path class="st27" d="M210.72,217.47l-0.63,0.11l-12.36-20.47c3.06-3.29,3.91-12.37,4.09-19.1c4.24,0.29,7.17,1.38,7.55,3.47
			c1.46,8.11,0.84,32.07,0.73,35.65C210.19,217.12,210.38,217.2,210.72,217.47z"/>
	</g>
	<g>
		<path class="st30" d="M255.33,170.04c0,0-5.11,17.11-17.89,18.86c-12.41,1.7-18.8-5.26-19.15-5.65l-0.01-0.02
			c0,0-6.38,0.31-8.91-1.75c-2.53-2.06,0.97-24.73,8.91-28.43c0,0,10.41,1.64,9.53,9.58C227.81,162.63,245.4,170.56,255.33,170.04z"
			/>
	</g>
	<g>
		<path class="st31" d="M255.33,170.04c0,0-5.11,17.11-17.89,18.86c-12.41,1.7-18.8-5.26-19.15-5.65l-0.01-0.02l9.53-20.6
			C227.81,162.63,245.4,170.56,255.33,170.04z"/>
	</g>
	<g>
		
			<ellipse transform="matrix(0.4329 -0.9014 0.9014 0.4329 -4.9675 316.9965)" class="st32" cx="249.47" cy="162.45" rx="11.36" ry="9.35"/>
	</g>
	<g>
		
			<ellipse transform="matrix(0.4329 -0.9014 0.9014 0.4329 -5.0721 316.5043)" class="st33" cx="249.02" cy="162.28" rx="9.34" ry="7.24"/>
	</g>
	<g>
		<path class="st32" d="M255.4,153.64c-0.22,0-0.45-0.02-0.66-0.07c-0.82-0.19-1.51-0.72-1.94-1.5c-0.63-1.15-0.67-2.72-0.1-4.28
			c0.95-2.63,3.26-4.34,5.27-3.88c0.82,0.19,1.51,0.72,1.94,1.5c0.63,1.15,0.67,2.71,0.1,4.28l0,0
			C259.16,152.04,257.23,153.64,255.4,153.64z M257.3,145.83c-0.88,0-2.13,0.99-2.72,2.63c-0.36,1-0.37,2.01-0.03,2.64
			c0.16,0.28,0.36,0.45,0.62,0.51c0.88,0.19,2.3-0.82,2.95-2.61l0,0c0.36-1,0.37-2.01,0.03-2.64c-0.16-0.28-0.36-0.45-0.63-0.51
			C257.46,145.84,257.38,145.83,257.3,145.83z"/>
	</g>
	<g>
		<polygon class="st34" points="246.09,160.11 250.75,163.28 252.18,156.56 		"/>
	</g>
	<g>
		<polygon class="st35" points="250.76,163.25 246.11,160.08 244.68,166.8 		"/>
	</g>
	<g>
		<path class="st36" d="M253.43,174.75c0,0-1.12-14.19,0.3-14.94c1.43-0.75,5.71,1.2,5.78,2.82c0.08,1.62,2.8-2.06,5.49-1.46
			c0,0-4.44,4.48-5.34,6.03C258.77,168.75,253.43,174.75,253.43,174.75z"/>
	</g>
	<g>
		<path class="st37" d="M200.81,133.06l-3.12-0.91c0,0-11.84-2.42-17.28,2.27c-5.45,4.69-28.27,28.56-28.27,28.56
			s-15.48,16.17-13.75,21.88c1.73,5.71,41.33,0,41.33,0s24.81,0.69,29.66-3.37c0,0-0.26-7.95,3.8-14.7
			c4.06-6.74,14.01-23.6,2.12-29.35S200.81,133.06,200.81,133.06z"/>
	</g>
	<g>
		<path class="st30" d="M142.22,192.18c0,0-13.18-15.88,3.26-27.62c16.44-11.74,36.82,8.95,36.82,8.95s2.3,17.9-19.18,22.7
			S142.22,192.18,142.22,192.18z"/>
	</g>
	<g>
		<path class="st8" d="M172.59,122.66l13.75,0.77c0,0,29.15,32.58-6.08,60.77l1.23-3.22c0,0,15.79-12.99,10.78-28.56
			C187.24,136.85,172.59,122.66,172.59,122.66z"/>
	</g>
	<g>
		<path class="st8" d="M201.57,124.28c0,0,15.01,25.63,9.57,46.85l2.04-4.35c0,0,6.75-31.75-6.74-42.13L201.57,124.28z"/>
	</g>
	<g>
		<path class="st36" d="M195.92,172.1c-1.13,1.57-2.35,1.55-3.32,1.1c-1.07-0.49-1.83-1.51-1.83-1.51s-1.82-1.85-5.49,0.31
			c-3.68,2.17-8.01,14.73-25.42,20.09c-17.41,5.36-23.93,3.63-22.66-0.72c0,0,0.2-0.94,0.65-2.45c1.11-3.69,3.75-10.78,8.72-15.68
			c7.01-6.9,21.43-7.11,27.72-7.73c6.28-0.62,17.92-2.06,19.47-1.85C195.3,163.86,198.29,168.81,195.92,172.1z"/>
	</g>
	<g>
		<path class="st38" d="M192.6,173.2c-1.07-0.49-1.83-1.51-1.83-1.51s-1.82-1.85-5.49,0.31c-3.68,2.17-8.01,14.73-25.42,20.09
			c-17.41,5.36-23.93,3.63-22.66-0.72c0,0,0.2-0.94,0.65-2.45l0.4,0.49c0,0,12.44,2.06,28-9.37c15.56-11.44,21.94-11.95,24.62-9.58
			C191.59,171.09,192.15,172.08,192.6,173.2z"/>
	</g>
	<g>
		<path class="st39" d="M226.75,125.74c0.13,1.54-0.07,10.26-7.9,8.11l-9.64,9.7c0,0,1.74,5.02-1.34,6.56
			c-3.08,1.54-11.25-5.66-10.18-17.96c0,0,10.51-3.23,12.7-4.94c0.13-0.09,0.22-0.19,0.29-0.27c1.27-1.6,4.55-5.77,4.55-5.77
			l2.96,0.15l9.62,0.48C227.81,121.8,226.62,124.2,226.75,125.74z"/>
	</g>
	<g>
		<path class="st40" d="M219.28,121.56c0,0-2.19,3.21-2.92,2.61c-0.73-0.59-1.33-0.5-1.92,0.51c-0.59,1,1.05,2.05,1.05,2.05
			s-0.77,1.23-2.49,1.5c-0.89,0.14-1.87-0.43-2.61-1.02c0.13-0.09,0.22-0.19,0.29-0.27c1.27-1.6,4.55-5.77,4.55-5.77l2.96,0.15
			L219.28,121.56z"/>
	</g>
	<g>
		<path class="st41" d="M235.35,119.8c0,0-2.9,2.62-6.36,2.76c-3.47,0.14-14.4-0.76-14.4-0.76s-3.3-7.85,3.67-10.4
			c0.32-0.12,0.65-0.23,1.01-0.32c5.97-1.54,7.92,3.63,8.54,6.65c0.25,1.18,0.29,2.03,0.29,2.03L235.35,119.8z"/>
	</g>
	<g>
		<path class="st23" d="M227.81,117.73l-7.94-0.47l-1.61-5.86c0.32-0.12,0.65-0.23,1.01-0.32
			C225.24,109.54,227.19,114.71,227.81,117.73z"/>
	</g>
	<g>
		<path class="st42" d="M235.35,119.8c0,0-2.9,2.62-6.36,2.76c-3.47,0.14-14.4-0.76-14.4-0.76l13.51-2.04L235.35,119.8z"/>
	</g>
	<g>
		<path class="st25" d="M381.33,298.08c0,0,4,3,4,5s1,5,4,3s13-14,13-14s-0.62-2-3.31,0c-2.69,2-9.23,4.52-11.96,2.76
			C384.33,293.08,381.33,298.08,381.33,298.08z"/>
	</g>
	<g>
		<path class="st25" d="M277.33,285.08c0,0-8,8.92-9.5,9.46c-1.5,0.54-4.05,2.51-2.27,5.03c1.77,2.52,13.77,13.52,13.77,13.52
			s2-0.62,0-3.81c-2-3.19-6-9.19-3-12.19s7-5,7-5L277.33,285.08z"/>
	</g>
	<g>
		<path class="st43" d="M318.33,135.08c0,0-15.09,6.7-25.73,11.44c-5.79,2.57-10.27,4.56-10.27,4.56c-0.3,0.13-1.31-0.31-1.6-0.39
			c-1.35-0.38-2.67-0.86-3.96-1.42c-3.55-1.54-6.95-3.82-9.1-7.1c-2.42-3.69-3.27-9.24-2.21-13.53c0.93-3.75,3.67-6.42,6.92-8.3
			c1.13-0.65,2.31-1.22,3.51-1.74c0.46-0.19,0.91-0.38,1.37-0.56c0,0-14.93-1.96-15.93,14.04h-1c0,0-3.65-21,29.67-18
			c0,0,4.08-1,5.7-2c1.63-1,12.43-6.81,17.53,2.59C318.33,124.08,318.33,135.08,318.33,135.08z"/>
	</g>
	<g>
		<path class="st44" d="M292.6,146.52c-5.79,2.57-10.27,4.56-10.27,4.56c-0.3,0.13-1.31-0.31-1.6-0.39
			c-1.35-0.38-2.67-0.86-3.96-1.42c-3.55-1.54-6.95-3.82-9.1-7.1c-2.42-3.69-3.27-9.24-2.21-13.53c0.93-3.75,3.67-6.42,6.92-8.3
			c1.13-0.65,2.31-1.22,3.51-1.74l2.29-0.56c0,0,3.15-1.96,9.15,4.04C293.33,128.08,294.86,138.96,292.6,146.52z"/>
	</g>
	<g>
		<path class="st45" d="M273.3,143.35c-4.79-2.74-5.74-9.99-5.22-14.19c0.62-4.94,6.17-8.13,11.17-8.36
			c5.37-0.25,8.97,5.79,10.22,9.4c1.09,3.15,0.98,6.12-0.31,8.36c-1.21,2.1-3.4,3.51-6.33,4.07c-2.31,0.45-4.62,0.02-6.33-1.17
			c-2.21-1.54-3.17-4.08-3.6-5.94c-0.63-2.78-0.22-5.18,1.14-6.76c1.55-1.79,4.41-2.42,6.95-1.52c2.04,0.72,3.62,2.25,4.22,4.08
			c0.73,2.22-0.13,4.56-2.35,6.42l-1.28-1.53c0.92-0.77,2.36-2.34,1.74-4.26c-0.4-1.23-1.55-2.31-2.98-2.82
			c-1.79-0.63-3.75-0.24-4.77,0.94c-1.27,1.47-0.99,3.77-0.7,5.01c0.34,1.52,1.11,3.57,2.79,4.74c1.27,0.89,3.03,1.2,4.81,0.85
			c2.38-0.46,4.05-1.5,4.97-3.11c1-1.73,1.05-4.11,0.15-6.71c-1-2.87-4-8.25-8.24-8.06c-3.53,0.16-8.74,2.31-9.28,6.61
			c-0.55,4.43,0.74,10.21,4.23,12.21L273.3,143.35z"/>
	</g>
	<g>
		<path class="st46" d="M267.83,105.36l1.5,0.71c0,0,13.34-10,20.67,8l3.01-0.87C293.01,113.21,287.33,94.65,267.83,105.36z"/>
	</g>
	<g>
		<path class="st47" d="M304.74,141.12c0,0,3.93-22.04-14.74-27.04l3.01-0.87c0,0,16.92,0.87,17.62,24.87L304.74,141.12z"/>
	</g>
	<g>
		<path class="st48" d="M255.33,220.08c0,0,11-10,24-7s20,1,21-2l3.44,1.83c0,0-4.44,6.17-10.44,5.17s-27-5-34,6L255.33,220.08z"/>
	</g>
	<g>
		<path class="st49" d="M305.97,212.17c0,0,2.36,23.91-32.64,25.91l7,6c0,0,32.26-7.82,28.63-31.91H305.97z"/>
	</g>
	<g>
		<path class="st50" d="M323.33,141.08l-6.61,73c0,0-11.39,0-13.39,0s-14-7-12-11s3-27,3-29s-9-15-11-19s-2.12-7.16,7-14
			c1.37-1.03,4.14-2.05,7.36-3c6.19-1.82,14.01-3.34,16.64-4c4-1,4.75,1.61,4.75,1.61L323.33,141.08z"/>
	</g>
	<g>
		<path class="st29" d="M311.33,167.88c0,12.2-3,33.2-8,46.2c-2,0-14-7-12-11s3-27,3-29s-9-15-11-19s-2.12-7.16,7-14
			c1.37-1.03,4.14-2.05,7.36-3C297.69,138.08,311.33,155.68,311.33,167.88z"/>
	</g>
	<g>
		<path class="st51" d="M305.08,136.16c0,0,9.25,3.92,11.25,5.92s3.77,0,3.77,0l0.1-2.15l-9.77-4.97L305.08,136.16z"/>
	</g>
	<g>
		<g>
			<path class="st33" d="M296.75,204.53L296.75,204.53c-0.68-0.43-0.9-1.32-0.5-2.02c2.53-4.39,10.43-19.36,6.18-27.87
				c-1.74-3.48-4.19-7.19-6.55-10.78c-5.23-7.93-10.4-13.67-9.05-19.94l3.02-2.48c-1.08,5.04,3.87,13.7,8.53,20.76
				c2.41,3.66,4.91,7.44,6.73,11.09c4.96,9.94-3.51,25.99-6.26,30.72C298.42,204.75,297.47,204.98,296.75,204.53z"/>
		</g>
	</g>
	<g>
		<polygon class="st52" points="392.33,81.08 447.33,93.08 396.65,152.32 382.33,156.74 379.33,124.08 380.15,112.3 		"/>
	</g>
	<g>
		<path class="st12" d="M397.04,129.58c0,0-12.71,1.5-10.71-5.5c2-7,5-8,5-8s-9-7-2-12s9,1,11-5s3-9,8-10s17,1,17,6
			S397.04,129.58,397.04,129.58z"/>
	</g>
	<g>
		<path class="st53" d="M326.33,140.08c0,0,47-16,49-18s2-8,3-9s4-1,4-1s0,1-1,2s-1.72,3.96-1.72,3.96l-0.28,6.04
			c0,0-7.68,10-16.34,21C354.33,156.08,324.33,147.08,326.33,140.08z"/>
	</g>
	<g>
		<path class="st54" d="M336.33,234.08c0,0-2,16-9,20c-0.77,0.44-1.73,1.21-2.85,2.25c-9.03,8.42-27.85,34.08-30.35,36.75
			c-2.8,3-12.91,5.06-15.8,0c-4-7-5-17,7-28s29-24,29-35c0-4.27,0.15-8.69,0.34-12.5c0.29-6.01,0.66-10.5,0.66-10.5L336.33,234.08z"
			/>
	</g>
	<g>
		<path class="st55" d="M336.33,234.08c0,0-2,16-9,20c-0.77,0.44-1.73,1.21-2.85,2.25c-0.06-0.39-0.11-0.81-0.15-1.25
			c-1-12-9.66-37.5-9.66-37.5c0.29-6.01,0.66-10.5,0.66-10.5L336.33,234.08z"/>
	</g>
	<g>
		<path class="st56" d="M383.33,299.08c-6.06,3.64-26-14-30-26c-4.4-13.21-18-34-20-37s-24-20-23-38s5-20,5-20h21.39
			c0,0,7.61,10,18.61,40s18,51,23,56S393.33,293.08,383.33,299.08z"/>
	</g>
	<g>
		<path class="st57" d="M322.33,139.08c0,0-3.13,1.04-5.9,3.13c-1.93,1.45-3.69,3.41-4.1,5.87c-1,6,4,19,4,21s-1,9-1,9h21.39
			c0,0,2.61-23,1.61-26S334.33,133.08,322.33,139.08z"/>
	</g>
	<g>
		<path class="st51" d="M318.78,146.66c0,2.16,5.3-0.46,5.3-0.46s-1.5-5.44-3.76-6.12c-2.26-0.68-3.9,2.13-3.9,2.13L318.78,146.66z"
			/>
	</g>
	<g>
		<polygon class="st58" points="422.33,123.08 424.33,154.08 398.33,166.08 393.33,125.08 413.33,94.08 447.33,93.08 		"/>
	</g>
	<g>
		<polygon class="st59" points="447.33,93.08 422.33,123.08 393.33,125.08 413.33,94.08 		"/>
	</g>
	<g>
		<path class="st51" d="M310.81,178.08c0,0,10.1-8.72,10.28-13.07c0.18-4.35,5.14,2.49,5.14,2.49s-10.51,12.17-15.42,12.71V178.08z"
			/>
	</g>
	<g>
		<path class="st36" d="M402.33,136.08c-1,1-6,2-8,3s-30,31-57,31s-24-19-24-19s0.2-1.3,1.18-2.7c0,0,0.01,0,0-0.01
			c1.31-1.85,3.97-3.86,9.35-3.29c0,0-2.12-5.09-3.53-5c-0.43,0.03,1-2,1-2l6-18c0,0,4.09,1,5.55,6c1.45,5-1.55,8-4.55,9s5,10,5,10
			h29.66c0,0,12.34-5,18.34-7s8-4,10-6s6.05-1,9.03,0.5C403.33,134.08,403.33,135.08,402.33,136.08z"/>
	</g>
	<g>
		<path class="st60" d="M402.33,136.08c-1,1-6,2-8,3s-30,31-57,31s-24-19-24-19s0.2-1.3,1.18-2.7c0.76,3.91,4.44,15.27,21.82,15.92
			c21,0.78,57-26.55,57-26.55S398.33,135.08,402.33,136.08z"/>
	</g>
	<g>
		<path class="st61" d="M323.27,120.93c-0.47,3.28-3.51,5.56-6.79,5.09c-3.28-0.47-5.56-3.51-5.09-6.79
			c0.13-0.93,0.47-1.78,0.97-2.51c1.24-1.84,3.47-2.92,5.82-2.58c2.77,0.4,4.83,2.64,5.12,5.3
			C323.35,119.92,323.34,120.42,323.27,120.93z"/>
	</g>
	<g>
		<path class="st62" d="M323.3,119.44c-1.24,1.84-3.47,2.92-5.82,2.58c-2.77-0.4-4.83-2.64-5.12-5.3c1.24-1.84,3.47-2.92,5.82-2.58
			C320.95,114.54,323.01,116.78,323.3,119.44z"/>
	</g>
	<g>
		<path class="st62" d="M328.58,126.08c1.24,6-7.25,12-7.25,12s0.21-1.25,0.24-2.7c0.05-1.73-0.15-3.76-1.24-4.3c-2-1-1-6-1-6
			c0.99-2.63,2.51-4.28,4.11-5.32c3.28-2.13,6.89-1.68,6.89-1.68S327.33,120.08,328.58,126.08z"/>
	</g>
	<g>
		<path class="st61" d="M322.66,123.87c-1.96,2.03-2.09,5.45-1.08,8.14c0.39,1.03,0.27,2.26-0.01,3.37c0.05-1.73-0.15-3.76-1.24-4.3
			c-2-1-1-6-1-6c0.99-2.63,2.51-4.28,4.11-5.32C323.73,120.48,324.2,122.28,322.66,123.87z"/>
	</g>
	<g>
		<path class="st36" d="M321.92,128.06c-0.6,1.02-0.6,2.02,1.4,3.02l1.38-3.12C324.7,127.95,322.52,127.04,321.92,128.06z"/>
	</g>
</g>
</svg>
